<svg xmlns="http://www.w3.org/2000/svg" width="30" height="31" viewBox="0 0 30 31" fill="none"><path d="M29.2316 3.93282L25.2561 0.415476C24.6715 -0.112125 23.7946 -0.112125 23.2099 0.415476L19.2344 3.93282C18.8837 4.22593 18.7083 4.63629 18.7083 5.10527V17.6505H10.9326C10.0557 17.6505 9.35413 18.3539 9.35413 19.2333V22.0471H1.57852C0.701567 22.0471 0 22.7506 0 23.6299V28.437C0 29.3163 0.701567 30.0198 1.57852 30.0198H28.2962C29.1732 30.0198 29.8748 29.3163 29.8748 28.437V5.10527C29.7578 4.63629 29.5824 4.22593 29.2316 3.93282ZM9.29568 28.2025H1.69545V23.7472H9.29568V28.2025ZM18.6498 28.2025H11.0496V19.4091H18.6498V28.2025ZM20.4037 28.2025V5.16389L24.2038 1.82241L28.0039 5.16389V28.2025H20.4037Z" fill="#B81C17"></path></svg>