<svg xmlns="http://www.w3.org/2000/svg" width="30" height="31" viewBox="0 0 30 31" fill="none"><path d="M14.9477 9.08447C12.5066 9.08447 10.5763 7.09207 10.5763 4.70117C10.5763 2.31028 12.5633 0.317871 14.9477 0.317871C17.3321 0.317871 19.3191 2.31028 19.3191 4.70117C19.3191 7.09207 17.3889 9.08447 14.9477 9.08447ZM14.9477 2.02565C13.4717 2.02565 12.3362 3.2211 12.3362 4.64425C12.3362 6.0674 13.5284 7.26284 14.9477 7.26284C16.367 7.26284 17.5592 6.0674 17.5592 4.64425C17.5592 3.2211 16.4238 2.02565 14.9477 2.02565Z" fill="#B81C17"></path><path d="M0.584546 25.4222C-0.607655 23.3159 0.0736306 20.6404 2.17418 19.388C4.27472 18.1926 6.94297 18.8757 8.19194 20.982C9.38414 23.0882 8.70289 25.7637 6.60235 27.0161C4.44503 28.2116 1.77675 27.4715 0.584546 25.4222ZM3.08251 20.925C1.83353 21.6651 1.37935 23.259 2.11738 24.5114C2.85541 25.7637 4.44501 26.2191 5.69398 25.4791C6.94296 24.7391 7.39713 23.1451 6.6591 21.8928C5.92107 20.6404 4.33148 20.185 3.08251 20.925Z" fill="#B81C17"></path><path d="M23.3499 27.0161C21.2494 25.8207 20.5113 23.0882 21.7603 20.982C22.9525 18.8757 25.6776 18.1357 27.7781 19.3881C29.8787 20.5835 30.6167 23.3159 29.3677 25.4222C28.1755 27.4715 25.4505 28.2116 23.3499 27.0161ZM23.2931 21.8928C22.5551 23.1452 23.0093 24.796 24.2583 25.4791C25.5072 26.2192 27.1536 25.7638 27.8349 24.5114C28.5729 23.259 28.1188 21.6082 26.8698 20.9251C25.6208 20.185 24.0312 20.6404 23.2931 21.8928Z" fill="#B81C17"></path><path d="M3.59344 16.428L1.8335 16.3141C1.94704 14.2078 2.57155 12.1585 3.59344 10.3938C4.61532 8.62909 6.03461 7.14902 7.73775 6.0105L8.70287 7.49057C5.69398 9.42606 3.76375 12.7847 3.59344 16.428Z" fill="#B81C17"></path><path d="M26.3588 16.428C26.1885 12.8416 24.2583 9.48298 21.1926 7.49057L22.1577 6.0105C23.8608 7.14902 25.2802 8.62909 26.3021 10.3938C27.3807 12.2154 27.9484 14.2648 28.062 16.3141L26.3588 16.428Z" fill="#B81C17"></path><path d="M14.9477 30.3179C12.8472 30.3179 10.8602 29.8624 8.98673 28.8947L9.78151 27.3008C11.3711 28.0977 13.1311 28.5532 14.9477 28.5532C16.7644 28.5532 18.4676 28.1547 20.1139 27.3008L20.9087 28.8947C19.0353 29.8055 17.0483 30.3179 14.9477 30.3179Z" fill="#B81C17"></path></svg>