<svg xmlns="http://www.w3.org/2000/svg" width="53" height="32" viewBox="0 0 53 32" fill="none"><path d="M37.265 1.27795C32.203 1.27795 27.7454 3.85371 25.0256 7.71735H9.53739C4.85317 7.71735 1 11.581 1 16.278C1 20.9749 4.85317 24.8386 9.53739 24.8386H25.0256C27.7454 28.7022 32.203 31.278 37.265 31.278C45.5001 31.278 52.1487 24.5355 52.1487 16.3537C52.1487 7.94462 45.5001 1.27795 37.265 1.27795ZM9.53739 21.581C6.59086 21.581 4.24875 19.1567 4.24875 16.278C4.24875 13.3234 6.66642 10.9749 9.53739 10.9749H23.2878C22.6834 12.6416 22.3057 14.4598 22.3057 16.278C22.3057 18.0961 22.6834 19.9901 23.2878 21.581H9.53739ZM37.265 27.9446C33.0341 27.9446 29.4076 25.7477 27.2921 22.4143C27.2921 22.3386 27.2166 22.2628 27.2166 22.2628C26.1588 20.5204 25.5544 18.4749 25.5544 16.278C25.5544 14.081 26.1588 12.0355 27.2166 10.2931C27.2921 10.2173 27.2921 10.1416 27.2921 10.1416C29.332 6.80826 33.0341 4.61129 37.265 4.61129C43.6869 4.61129 48.9755 9.91432 48.9755 16.3537C48.9755 22.7173 43.6869 27.9446 37.265 27.9446Z" fill="#B81C17" stroke="white" stroke-width="0.9963" stroke-miterlimit="10"></path><path d="M37.265 9.76294C33.714 9.76294 30.8431 12.6417 30.8431 16.2023C30.8431 19.7629 33.714 22.6417 37.265 22.6417C40.8159 22.6417 43.6869 19.7629 43.6869 16.2023C43.6113 12.6417 40.8159 9.76294 37.265 9.76294ZM37.265 19.3842C35.5273 19.3842 34.0918 17.9448 34.0918 16.2023C34.0918 14.4599 35.5273 13.0205 37.265 13.0205C39.0027 13.0205 40.4382 14.4599 40.4382 16.2023C40.4382 17.9448 39.0027 19.3842 37.265 19.3842Z" fill="#B81C17" stroke="white" stroke-width="0.9963" stroke-miterlimit="10"></path></svg>