<svg xmlns="http://www.w3.org/2000/svg" width="49" height="30" viewBox="0 0 49 30" fill="none"><path d="M48.315 15.463C48.0662 16.3982 47.6932 17.2711 46.947 17.8946C46.0143 18.6428 44.9572 18.8922 43.8379 18.7052C43.7757 18.7052 43.7135 18.7052 43.6514 18.7052C43.6514 18.7052 43.5892 18.7052 43.527 18.7052C43.527 18.8299 43.527 19.0169 43.527 19.204C43.527 20.7628 43.527 22.3215 43.527 23.8803C43.527 24.8155 43.2161 25.1273 42.2834 25.1273C40.0448 25.1273 37.8685 25.1273 35.63 25.1273C35.1325 25.1273 34.7594 25.0026 34.5107 24.5661C34.3241 24.1297 34.5107 23.7556 34.7594 23.3815C35.4434 22.5086 35.3812 21.4486 34.6351 20.7004C33.9511 20.0769 32.8318 20.0769 32.0856 20.7004C31.3394 21.3863 31.2773 22.5086 31.9613 23.3815C32.2722 23.7556 32.3965 24.0673 32.21 24.5661C32.0234 25.0026 31.5882 25.1273 31.1529 25.1273C27.2355 25.1273 23.318 25.1273 19.3384 25.1273C19.1519 25.1273 18.9653 25.1273 18.7166 25.1273C19.0275 26.8108 18.6544 28.1825 17.2864 29.2424C16.5403 29.8036 15.7319 30.053 14.7992 29.9906C12.8094 29.8659 10.7574 28.0578 11.3792 25.1273C11.1927 25.1273 11.0683 25.1273 10.8817 25.1273C9.32721 25.1273 7.77268 25.1273 6.15596 25.1273C5.28542 25.1273 4.97451 24.8155 4.91233 23.8803C4.91233 22.3215 4.91233 20.7628 4.91233 19.204C4.91233 19.0169 4.91233 18.8922 4.91233 18.6428C3.41998 18.9546 2.17635 18.6428 1.11927 17.6452C0.373088 16.897 0 16.0241 0 14.9641C0 13.7171 0.49745 12.7195 1.49235 11.9713C2.48726 11.2231 3.60652 11.0984 4.85015 11.3478C4.85015 11.0984 4.85015 10.9737 4.85015 10.7867C4.85015 9.22789 4.85015 7.66913 4.85015 6.04801C4.85015 5.23745 5.16106 4.86335 6.0316 4.86335C7.58613 4.86335 9.14067 4.86335 10.7574 4.86335C10.9439 4.86335 11.0683 4.86335 11.317 4.86335C11.0061 3.42928 11.2548 2.11992 12.3119 1.05996C13.2446 0.374104 14.1152 0 15.1723 0C16.4159 0 17.4108 0.498805 18.157 1.49641C18.9032 2.49402 19.0897 3.61634 18.7788 4.801C22.4475 4.801 26.054 4.801 29.7227 4.801C29.4118 3.36693 29.7227 2.05757 30.7798 0.99761C31.526 0.311753 32.4587 0 33.4536 0C35.319 0 37.6819 1.74582 37.0601 4.86335C37.2467 4.86335 37.4954 4.86335 37.6819 4.86335C39.1743 4.86335 40.6667 4.86335 42.2212 4.86335C43.2161 4.86335 43.4648 5.1751 43.527 6.11036C43.527 7.66913 43.527 9.16554 43.527 10.7243C43.527 10.9114 43.527 11.0361 43.527 11.2855C43.6514 11.2855 43.7135 11.2855 43.7757 11.2855C46.0143 10.9114 47.8175 12.096 48.315 14.3406C48.315 14.403 48.3771 14.4653 48.3771 14.5277C48.315 14.8394 48.315 15.1512 48.315 15.463ZM6.96432 23.1944C7.21304 23.1944 7.33741 23.1944 7.52395 23.1944C9.32721 23.1944 11.1305 23.1944 12.9337 23.1944C13.369 23.1944 13.8043 23.3191 13.9908 23.7556C14.2395 24.192 14.053 24.5661 13.7421 24.9402C13.0581 25.7508 13.1203 26.8731 13.8665 27.559C14.6126 28.2448 15.7319 28.2448 16.4159 27.559C17.1621 26.8731 17.2243 25.7508 16.5403 24.9402C16.2294 24.5661 16.0428 24.192 16.2915 23.7556C16.5403 23.3191 16.9133 23.1944 17.4108 23.1944C19.2141 23.1944 21.0173 23.1944 22.8828 23.1944C23.0693 23.1944 23.1937 23.1944 23.3802 23.1944C23.3802 21.6357 23.3802 20.1392 23.3802 18.6428C20.5821 19.204 18.5922 17.2711 18.5301 15.0889C18.5301 14.0289 18.841 13.156 19.5871 12.4078C20.6442 11.3478 21.95 11.0361 23.3802 11.3478C23.3802 9.78905 23.3802 8.35498 23.3802 6.79622C23.1937 6.79622 23.0071 6.79622 22.8206 6.79622C21.0173 6.79622 19.1519 6.79622 17.3486 6.79622C16.7268 6.79622 16.2915 6.48446 16.2915 5.98566C16.2915 5.67391 16.4781 5.2998 16.6646 5.0504C17.2864 4.17749 17.2864 3.11753 16.4781 2.43167C15.7319 1.74582 14.6126 1.74582 13.9286 2.43167C13.1203 3.11753 13.0581 4.17749 13.7421 4.98805C14.053 5.36215 14.2395 5.73626 14.053 6.17271C13.8043 6.67152 13.4312 6.73387 12.9337 6.73387C11.1305 6.73387 9.32721 6.73387 7.52395 6.73387C7.33741 6.73387 7.21304 6.73387 7.0265 6.73387C7.0265 8.72909 7.0265 10.5996 7.0265 12.5325C7.0265 13.0313 7.0265 13.5301 6.46687 13.8418C5.90723 14.0912 5.53415 13.7795 5.16106 13.4677L5.09888 13.4054C4.41488 12.9689 3.73088 12.9689 3.04689 13.343C2.36289 13.7795 2.05199 14.3406 2.17635 15.1512C2.23853 15.9618 2.73598 16.5229 3.48216 16.7723C4.16615 17.0217 4.78797 16.8347 5.3476 16.3359C5.65851 16.0241 6.0316 15.8994 6.40469 16.0865C6.83996 16.2735 6.96432 16.6476 6.96432 17.0841C6.96432 17.2711 6.96432 17.4582 6.96432 17.6452C6.96432 19.4534 6.96432 21.2616 6.96432 23.1944ZM41.5994 6.79622C41.3506 6.79622 41.2263 6.79622 41.0397 6.79622C39.2987 6.79622 37.4954 6.79622 35.7543 6.79622C35.2569 6.79622 34.8216 6.73387 34.5729 6.23506C34.3241 5.73626 34.5729 5.36215 34.8838 4.98805C35.319 4.48924 35.4434 3.92809 35.2569 3.30458C35.0703 2.49402 34.4485 1.99522 33.6401 1.87052C32.9562 1.80817 32.21 2.18227 31.8369 2.80578C31.3394 3.55399 31.4016 4.36454 31.9613 4.98805C32.2722 5.36215 32.5209 5.73626 32.2722 6.23506C32.0234 6.73387 31.5882 6.79622 31.0907 6.79622C29.2875 6.79622 27.5464 6.79622 25.7431 6.79622C25.5566 6.79622 25.4322 6.79622 25.1835 6.79622C25.1835 7.04562 25.1835 7.17032 25.1835 7.35737C25.1835 9.16554 25.1835 10.9737 25.1835 12.7819C25.1835 13.2807 25.1213 13.6548 24.6238 13.9042C24.1886 14.0912 23.8155 13.9042 23.4424 13.6548C22.5719 12.9689 21.5148 13.0313 20.7686 13.7795C20.0846 14.5277 20.0846 15.65 20.7686 16.3359C21.4526 17.0841 22.5719 17.1464 23.3802 16.3982C23.7533 16.0865 24.0642 15.8994 24.5617 16.1488C24.9969 16.3982 25.1213 16.7723 25.1213 17.2711C25.1213 19.0793 25.1213 20.8875 25.1213 22.758C25.1213 22.945 25.1213 23.0697 25.1213 23.2568C26.6758 23.2568 28.1682 23.2568 29.6605 23.2568C29.0387 20.3263 31.1529 18.3934 33.3292 18.4558C35.4434 18.4558 37.5576 20.3263 36.9979 23.2568C38.4903 23.2568 39.9827 23.2568 41.5372 23.2568C41.5372 21.3239 41.5372 19.5157 41.5372 17.6452C41.5372 17.0841 41.475 16.5229 42.0968 16.2735C42.6565 16.0241 43.0295 16.3359 43.4648 16.6476C44.0866 17.1464 44.8328 17.1464 45.5168 16.7723C46.2008 16.3982 46.5117 15.7747 46.4495 15.0265C46.3873 14.2159 45.9521 13.6548 45.1437 13.4054C44.3975 13.156 43.7757 13.343 43.2161 13.8418C42.9052 14.1536 42.5321 14.2783 42.159 14.0912C41.7237 13.9042 41.5994 13.5301 41.5994 13.0936C41.5994 12.9066 41.5994 12.7195 41.5994 12.5948C41.5994 10.5373 41.5994 8.66674 41.5994 6.79622Z" fill="#B81C17"></path></svg>