<svg width="220" height="51" viewBox="0 0 220 51" fill="none" xmlns="http://www.w3.org/2000/svg">
<g clip-path="url(#clip0)">
<path d="M20.4609 47.3688C24.9936 49.0336 29.8848 49.1897 34.4686 47.863C34.5455 47.837 34.6223 47.811 34.6991 47.785C35.2625 47.6029 35.5954 47.0046 35.4161 46.4063C35.2369 45.8341 34.6479 45.4959 34.0589 45.678C33.9821 45.704 33.9309 45.73 33.854 45.73C29.7055 46.9266 25.2753 46.7965 21.2036 45.2878C20.6402 45.0797 20.0256 45.3658 19.8207 45.9381C19.5903 46.5364 19.8976 47.1607 20.4609 47.3688ZM44.6095 41.646C44.6863 41.568 44.7375 41.516 44.8143 41.4379C46.1716 39.9552 47.3496 38.2904 48.2971 36.4435C52.9578 27.4692 51.2676 16.544 44.3534 9.46858C43.9437 9.02637 43.2522 9.02637 42.8169 9.46858C42.3816 9.88478 42.3816 10.5871 42.8169 11.0293C49.0653 17.4544 50.6018 27.3392 46.3764 35.4551C45.5058 37.1199 44.4558 38.6286 43.2266 39.9812C43.1754 40.0333 43.0986 40.1113 43.0474 40.1633C42.6376 40.6055 42.6376 41.3079 43.073 41.7241C43.5083 42.0883 44.1741 42.0883 44.6095 41.646ZM34.0589 3.40767C23.8924 0.624329 13.0602 5.33259 8.09219 14.9312C7.40077 16.2839 6.83739 17.6625 6.40205 19.0932C6.22279 19.6655 6.5557 20.2898 7.11908 20.4719C7.68246 20.654 8.29705 20.3158 8.47631 19.7435C8.86044 18.4429 9.3726 17.1943 9.9872 15.9717C14.4942 7.28353 24.3022 3.01748 33.4955 5.51468C34.0845 5.67075 34.6735 5.33259 34.8271 4.7343C34.9808 4.16203 34.6479 3.56374 34.0589 3.40767Z" fill="#00B6FF"/>
<path d="M37.4647 12.2518V39.0187H39.6414V12.2518H37.4647ZM35.0832 40.6835L11.8822 27.105L10.8066 29.0039L34.0076 42.5824L35.0832 40.6835ZM12.1895 24.1135L35.0832 10.6911L34.0076 8.79218L11.0883 22.2146L12.1895 24.1135Z" fill="#1677FF"/>
<path d="M35.7234 12.3039C32.6248 10.483 31.5493 6.45109 33.3419 3.30358C35.1344 0.156063 39.1037 -0.936462 42.2023 0.884413C45.3009 2.70529 46.3764 6.73723 44.5839 9.88474C42.7913 13.0323 38.822 14.1248 35.7234 12.3039ZM36.799 10.405C38.8732 11.6276 41.5109 10.8992 42.7145 8.79221C43.9181 6.6852 43.201 4.00591 41.1268 2.78333C39.0525 1.56074 36.4149 2.28909 35.2113 4.3961C34.0077 6.50311 34.7247 9.1824 36.799 10.405Z" fill="#1677FF"/>
<path d="M3.25227 30.8248C0.153679 29.004 -0.921865 24.972 0.870709 21.8245C2.66328 18.677 6.63255 17.5845 9.73114 19.4053C12.8297 21.2262 13.9053 25.2582 12.1127 28.4057C10.3201 31.5792 6.35086 32.6457 3.25227 30.8248ZM4.32782 28.9259C6.40208 30.1485 9.03972 29.4202 10.2433 27.3131C11.4469 25.2061 10.7299 22.5268 8.6556 21.3043C6.58134 20.0817 3.94369 20.81 2.74011 22.917C1.56213 25.024 2.25355 27.7293 4.32782 28.9259Z" fill="#1677FF"/>
<path d="M36.1076 50.048C33.009 48.2272 31.9335 44.1952 33.726 41.0477C35.5186 37.9002 39.4879 36.8077 42.5865 38.6286C45.6851 40.4494 46.7606 44.4814 44.968 47.6289C43.2011 50.8024 39.2318 51.8689 36.1076 50.048ZM37.2087 48.1491C39.283 49.3717 41.9206 48.6434 43.1242 46.5364C44.3278 44.4293 43.6108 41.7501 41.5365 40.5275C39.4623 39.3049 36.8246 40.0332 35.621 42.1402C34.4174 44.2473 35.1345 46.9526 37.2087 48.1491Z" fill="#1677FF"/>
<path d="M10.0384 41.2038C10.986 41.0738 11.8566 41.2298 12.4456 41.568C12.4456 41.542 12.4456 41.542 12.4456 41.516C12.5224 41.1258 12.7529 40.8136 13.0602 40.6316C12.6761 40.1893 12.4968 39.5911 12.5993 38.9668C12.7017 38.4465 12.9578 38.0303 13.3419 37.7442L12.5481 36.2615C12.4456 36.0794 12.5224 35.8713 12.7017 35.7672C12.881 35.6632 13.0858 35.7412 13.1883 35.9233L13.9821 37.406C14.2382 37.328 14.5199 37.302 14.8272 37.328L15.1857 35.7932C15.2369 35.6111 15.4162 35.4811 15.5954 35.5331C15.7747 35.5851 15.9027 35.7672 15.8515 35.9493L15.493 37.5361C16.2356 37.9263 16.671 38.7847 16.5173 39.6691C16.3637 40.5275 15.6979 41.1518 14.904 41.2819C14.9808 41.49 15.0064 41.7241 14.9552 41.9582C14.904 42.1923 14.8016 42.4004 14.6735 42.5565L15.9795 43.545C16.1332 43.675 16.1588 43.8831 16.0564 44.0392C15.9795 44.1432 15.8515 44.1953 15.7235 44.1693C15.6723 44.1693 15.621 44.1432 15.5698 44.0912L14.0589 42.9207C13.8797 42.9727 13.7004 42.9727 13.5212 42.9467C13.4699 42.9467 13.4187 42.9207 13.3675 42.8946C13.2907 43.571 12.6761 44.1953 11.7798 44.5855L12.0615 45.8341C12.1127 46.0161 11.9847 46.2242 11.8054 46.2503C11.7542 46.2503 11.703 46.2503 11.6518 46.2503C11.5237 46.2242 11.3957 46.1202 11.3701 45.9901L11.0884 44.7936C10.9347 44.8456 10.7555 44.8716 10.6018 44.8976C8.9373 45.1317 7.47763 44.4814 7.32398 43.4409C7.14472 42.4784 8.37392 41.4379 10.0384 41.2038Z" fill="#1677FF"/>
<path d="M75.3905 38.1083L74.0077 33.9203H65.7362L64.3278 38.1083H59.5902L68.041 14.489H71.6005L80.1024 38.1083H75.3905ZM69.9872 21.4603L67.0422 30.0444H72.8297L69.9872 21.4603Z" fill="#3E3A39"/>
<path d="M97.4136 38.1083L88.1946 23.6193V38.1083H83.662V14.489H87.7081L96.927 28.9519V14.489H101.46V38.1083H97.4136Z" fill="#3E3A39"/>
<path d="M116.415 18.5989V38.1083H111.882V18.5989H105.813V14.489H122.51V18.5989H116.415Z" fill="#3E3A39"/>
<path d="M133.956 38.3164C131.472 38.3164 129.373 37.458 127.682 35.7412C126.658 34.7007 126.044 33.5301 125.787 32.2035C125.531 30.8768 125.403 28.9259 125.403 26.3246C125.403 23.7494 125.531 21.7725 125.787 20.4458C126.044 19.0932 126.658 17.9226 127.682 16.9081C129.373 15.1913 131.472 14.3329 133.956 14.3329C138.438 14.3329 141.716 16.9862 142.51 21.7985H137.9C137.414 19.7695 136.159 18.4429 133.982 18.4429C132.753 18.4429 131.754 18.833 131.088 19.6654C130.141 20.7059 129.936 21.7464 129.936 26.3246C129.936 30.9028 130.141 31.9694 131.088 32.9839C131.78 33.8162 132.753 34.2064 133.982 34.2064C136.159 34.2064 137.414 32.8798 137.9 30.8508H142.51C141.716 35.6631 138.387 38.3164 133.956 38.3164Z" fill="#3E3A39"/>
<path d="M159.488 38.1083V28.2236H151.601V38.1083H147.068V14.489H151.601V24.1396H159.462V14.489H163.995V38.1083H159.488Z" fill="#3E3A39"/>
<path d="M183.329 38.1083L181.946 33.9203H173.675L172.266 38.1083H167.529L175.98 14.489H179.539L188.041 38.1083H183.329ZM177.9 21.4603L174.955 30.0444H180.743L177.9 21.4603Z" fill="#3E3A39"/>
<path d="M191.575 38.1083V14.489H196.108V38.1083H191.575Z" fill="#3E3A39"/>
<path d="M215.928 38.1083L206.709 23.6193V38.1083H202.177V14.489H206.223L215.442 28.9519V14.489H219.974V38.1083H215.928Z" fill="#3E3A39"/>
</g>
<defs>
<clipPath id="clip0">
<rect width="220" height="50.9325" fill="white"/>
</clipPath>
</defs>
</svg>
