<svg width="72" height="72" viewBox="0 0 72 72" fill="none" xmlns="http://www.w3.org/2000/svg">
<g filter="url(#filter0_d)">
<circle cx="36" cy="34" r="32" fill="white"/>
</g>
<path d="M37.9583 23.2239V40.8597L45.075 33.1549C45.6437 32.5391 46.5771 32.5391 47.1458 33.1549C47.7146 33.7706 47.7146 34.7653 47.1458 35.3811L37.5354 45.7857C36.9667 46.4015 36.0479 46.4015 35.4792 45.7857L25.8542 35.3969C25.5811 35.1019 25.4276 34.7014 25.4276 34.2838C25.4276 33.8661 25.5811 33.4657 25.8542 33.1707C26.4229 32.5549 27.3417 32.5549 27.9104 33.1707L35.0417 40.8597V23.2239C35.0417 22.3555 35.6979 21.645 36.5 21.645C37.3021 21.645 37.9583 22.3555 37.9583 23.2239Z" fill="#DC1C19"/>
<mask id="mask0" mask-type="alpha" maskUnits="userSpaceOnUse" x="25" y="21" width="23" height="26">
<path d="M37.9583 23.2239V40.8597L45.075 33.1549C45.6437 32.5391 46.5771 32.5391 47.1458 33.1549C47.7146 33.7706 47.7146 34.7653 47.1458 35.3811L37.5354 45.7857C36.9667 46.4015 36.0479 46.4015 35.4792 45.7857L25.8542 35.3969C25.5811 35.1019 25.4276 34.7014 25.4276 34.2838C25.4276 33.8661 25.5811 33.4657 25.8542 33.1707C26.4229 32.5549 27.3417 32.5549 27.9104 33.1707L35.0417 40.8597V23.2239C35.0417 22.3555 35.6979 21.645 36.5 21.645C37.3021 21.645 37.9583 22.3555 37.9583 23.2239Z" fill="white"/>
</mask>
<g mask="url(#mask0)">
</g>
<defs>
<filter id="filter0_d" x="0" y="0" width="72" height="72" filterUnits="userSpaceOnUse" color-interpolation-filters="sRGB">
<feFlood flood-opacity="0" result="BackgroundImageFix"/>
<feColorMatrix in="SourceAlpha" type="matrix" values="0 0 0 0 0 0 0 0 0 0 0 0 0 0 0 0 0 0 127 0"/>
<feOffset dy="2"/>
<feGaussianBlur stdDeviation="2"/>
<feColorMatrix type="matrix" values="0 0 0 0 0 0 0 0 0 0 0 0 0 0 0 0 0 0 0.5 0"/>
<feBlend mode="normal" in2="BackgroundImageFix" result="effect1_dropShadow"/>
<feBlend mode="normal" in="SourceGraphic" in2="effect1_dropShadow" result="shape"/>
</filter>
</defs>
</svg>
