<svg xmlns="http://www.w3.org/2000/svg" width="605" height="816" viewBox="0 0 605 816" fill="none"><g clip-path="url(#clip0)"><path d="M249.25 344.23C243.17 332.76 244.19 319.23 244.19 319.23C244.19 319.23 247.53 250.93 241.49 222.67C235.49 194.67 211.49 186.99 201.49 188.72C194.62 189.92 182.74 193.34 188.82 213.93C194.9 234.52 191.52 264.22 191.52 264.22C191.52 264.22 187.45 282.1 187.45 294.87C187.45 307.64 181.73 341.87 181.73 341.87C181.73 341.87 175.68 358.04 175 370.56C174.32 383.08 184.79 421.86 187.47 442.44C190.15 463.02 179.47 485.7 179.47 485.7C155.21 531.54 138.55 555.84 94.68 653.04C50.81 750.24 0 813.87 0 813.87L235.51 808.73C235.51 808.73 277 624.94 292.79 575.21C293.02 574.49 280.79 578.73 281.04 578.07C283.808 571.075 288.706 565.128 295.04 561.07C296.5 560.098 297.893 559.029 299.21 557.87C304.61 553.14 328.21 527.16 347.13 500.16C363.23 477.16 368.07 457.59 369.13 452.29C369.209 451.889 369.385 451.513 369.643 451.196C369.901 450.878 370.233 450.629 370.61 450.47C375.71 448.47 377.78 443.82 378.61 440.56C377.98 450.24 386.16 456.82 394.04 458.23C394.371 458.29 394.709 458.29 395.04 458.23C397.17 457.85 406.36 454.11 420.96 445.74C439.52 435.11 437.86 421.87 437.56 415.79C437.26 409.71 434.41 404.14 432.03 400.45C435.29 397.3 444.26 388.45 448.36 382.72C453.42 375.63 451.06 364.83 451.06 364.83C451.06 364.83 453.83 349.55 444.71 335.71C435.59 321.87 424.06 317.58 417.65 317.58C413.11 317.58 393.17 323.33 381.92 326.69C391.981 321.313 401.449 314.894 410.17 307.54C427.47 309.08 449.87 298.99 449.87 298.99C449.87 298.99 469.62 295.9 479.74 294.07C489.86 292.24 518.74 290.51 515.74 273.45C512.74 256.39 480.61 254.09 463.54 256.04C450.7 257.52 411.46 263.31 392.75 266.09C386.028 267.089 379.521 269.208 373.5 272.36C365.29 276.66 353.17 283.06 343.78 288.21C344.721 286.425 345.966 284.817 347.46 283.46C371.76 268.95 388.63 245.33 388.63 245.33C405.85 242.96 425.42 228.11 425.42 228.11C425.42 228.11 443.98 220.69 453.42 216.64C462.86 212.59 490.07 206.91 483.32 190.94C476.57 174.97 445.32 177.49 429.12 183.23C417 187.56 380 201.98 362.39 208.87C356.051 211.346 350.173 214.868 345 219.29C337.32 225.87 325.6 235.97 317.4 243.29C304.24 255.1 277.24 283.45 277.24 283.45C270.15 288.52 263.4 295.27 259.69 301C255.98 306.73 247.43 317.39 247.43 317.39L249.25 344.23ZM409.64 367.76C409.68 367.738 409.725 367.731 409.77 367.738C409.814 367.746 409.855 367.768 409.885 367.802C409.915 367.836 409.933 367.878 409.936 367.923C409.938 367.968 409.926 368.013 409.9 368.05C407.837 370.734 405.581 373.264 403.15 375.62C400.15 378.32 384.92 393.17 392.35 407.68C393.64 410.286 395.483 412.579 397.75 414.4C393.81 417.554 390.131 421.022 386.75 424.77C387.75 419.93 387.66 413.88 387.66 405.32C387.723 395.497 387.054 385.684 385.66 375.96C399 373.5 407 369.29 409.64 367.76Z" fill="#150035"></path><path d="M256.23 349.82C250.16 338.34 251.17 324.82 251.17 324.82C251.17 324.82 248.78 255.88 242.73 227.62C236.73 199.62 218.43 192.62 208.5 194.31C201.62 195.51 189.75 198.93 195.82 219.52C201.89 240.11 198.52 269.81 198.52 269.81C198.52 269.81 194.46 287.7 194.46 300.46C194.46 313.22 188.73 347.46 188.73 347.46C188.73 347.46 182.66 363.64 181.98 376.13C181.3 388.62 191.77 427.43 194.46 448.02C197.15 468.61 186.46 491.27 186.46 491.27C162.2 537.11 145.53 561.42 101.66 658.61C57.79 755.8 11.2 813.87 11.2 813.87L221.81 808.79C221.81 808.79 282.89 598.55 287.28 585.72C287.533 585.013 287.783 584.323 288.03 583.65C290.797 576.654 295.695 570.707 302.03 566.65C303.492 565.681 304.886 564.612 306.2 563.45C311.6 558.73 335.2 532.74 354.13 505.74C370.22 482.74 375.06 463.17 376.13 457.88C376.201 457.475 376.372 457.093 376.629 456.772C376.886 456.45 377.22 456.199 377.6 456.04C385.86 452.78 386.17 442.62 386.17 442.62C394.94 435.19 394.6 428.1 394.6 410.89C394.663 401.067 393.994 391.253 392.6 381.53C405.96 379.08 414.04 374.86 416.6 373.33C416.64 373.308 416.685 373.301 416.73 373.308C416.774 373.316 416.815 373.338 416.845 373.372C416.875 373.406 416.893 373.448 416.896 373.493C416.898 373.538 416.886 373.583 416.86 373.62C414.797 376.304 412.541 378.834 410.11 381.19C407.11 383.89 391.88 398.74 399.31 413.25C406.74 427.76 422.68 423.72 422.68 423.72L437.78 407.18C437.78 407.18 450.27 395.37 455.33 388.28C460.39 381.19 458.03 370.39 458.03 370.39C458.03 370.39 455.03 353.52 445.88 339.68C436.73 325.84 431.03 323.14 424.62 323.14C418.21 323.14 381.09 334.62 381.09 334.62L256.23 349.82Z" fill="#EFDBC5"></path><path d="M8 815.47L10 812.92C10.46 812.34 57 753.92 100.25 658C133.32 584.79 151 552.89 168 522.04C173.47 512.14 179.13 501.9 185.12 490.58C185.19 490.42 195.55 468.11 192.95 448.22C191.85 439.78 189.38 428.01 186.95 416.63C183.39 399.63 180.02 383.63 180.43 376.06C181.08 363.96 186.58 348.8 187.22 347.06C187.62 344.64 192.9 312.55 192.9 300.47C192.9 287.68 196.83 270.22 197 269.47C197 269.34 200.24 240 194.33 219.95C191.84 211.53 192.04 204.95 194.9 200.31C198.13 195.1 204.04 193.54 208.2 192.82C218.87 190.96 238.06 198.69 244.2 227.3C250.2 255.37 252.64 324.08 252.67 324.77C252.67 325.06 251.77 338.15 257.55 349.09L254.87 350.51C248.66 338.78 249.59 325.27 249.63 324.71C249.67 324.15 247.17 255.71 241.23 227.94C235.55 201.4 218.29 194.14 208.74 195.81C204.85 196.49 200.06 197.81 197.5 201.91C195.11 205.76 195.03 211.54 197.26 219.09C203.35 239.74 200.15 268.76 200.01 269.98C199.94 270.32 195.96 287.98 195.96 300.46C195.96 313.2 190.45 346.29 190.21 347.7L190.14 347.98C190.08 348.14 184.14 364.1 183.48 376.2C183.1 383.33 186.58 399.93 189.95 415.99C192.35 427.42 194.83 439.25 195.95 447.81C198.67 468.6 188.27 490.97 187.83 491.91C181.83 503.33 176.12 513.58 170.64 523.49C153.64 554.29 136.03 586.13 103.03 659.23C64.65 744.23 23.71 800 14.35 812.23L220.65 807.23C225.87 789.23 281.65 597.54 285.83 585.16C286.09 584.43 286.34 583.72 286.6 583.04C289.463 575.743 294.564 569.54 301.17 565.32C302.569 564.381 303.905 563.353 305.17 562.24C310.77 557.34 334.41 531.14 352.85 504.8C368.73 482.11 373.53 462.86 374.62 457.5C374.747 456.851 375.032 456.244 375.451 455.733C375.87 455.222 376.409 454.822 377.02 454.57C384.28 451.71 384.64 442.57 384.64 442.51V441.83L385.16 441.4C393.07 434.7 393.07 428.25 393.06 412.68V410.83C393.112 401.091 392.443 391.361 391.06 381.72L390.82 380.25L392.29 379.98C405.29 377.59 413.08 373.58 415.84 371.98C416.184 371.774 416.59 371.695 416.987 371.758C417.383 371.821 417.745 372.022 418.009 372.325C418.272 372.628 418.421 373.013 418.428 373.415C418.436 373.816 418.302 374.207 418.05 374.52C415.935 377.277 413.618 379.874 411.12 382.29C409.3 383.91 393.5 398.53 400.66 412.52C406.81 424.52 419.42 422.77 421.88 422.3L436.66 406.12C436.86 405.92 449.18 394.24 454.1 387.36C458.72 380.89 456.57 370.78 456.55 370.68C456.53 370.58 453.44 353.88 444.62 340.48C435.92 327.27 430.52 324.62 424.62 324.62C419.55 324.62 391.8 332.86 381.53 336.03L380.64 333.13C382.16 332.66 418.06 321.58 424.64 321.58C431.55 321.58 437.73 324.47 447.17 338.81C456.35 352.74 459.42 369.38 459.55 370.08C459.64 370.49 461.98 381.57 456.55 389.08C451.46 396.21 439.32 407.72 438.81 408.2L423.47 425L423.03 425.11C422.86 425.11 405.83 429.28 397.94 413.87C397.054 412.151 396.424 410.311 396.07 408.41C396.07 409.2 396.07 410 396.07 410.81V412.66C396.07 428.45 396.07 435.81 387.59 443.27C387.35 445.78 385.98 454.27 378.1 457.37C377.96 457.439 377.838 457.541 377.744 457.666C377.651 457.791 377.587 457.936 377.56 458.09C376.43 463.59 371.51 483.36 355.3 506.52C336.72 533.06 312.81 559.52 307.13 564.52C305.764 565.728 304.318 566.84 302.8 567.85C296.731 571.727 292.042 577.421 289.4 584.12C289.15 584.77 288.91 585.44 288.67 586.12C284.34 598.76 223.83 807.01 223.22 809.12L222.91 810.19H221.79L8 815.47ZM394.3 382.76C394.71 385.69 395.59 392.76 395.96 402.32C397.39 390.88 407.61 381.41 409.12 380.07C410.004 379.261 410.845 378.407 411.64 377.51C406.06 379.862 400.248 381.621 394.3 382.76Z" fill="#150035"></path><path d="M199.12 240.11C199.12 240.11 204.26 238.94 207.63 226.37C209.96 217.72 207.06 207.98 205.03 202.75C204.588 201.594 203.719 200.653 202.602 200.12C201.485 199.588 200.206 199.506 199.03 199.89C196.803 200.611 194.757 201.801 193.03 203.38C192.932 203.471 192.856 203.583 192.808 203.708C192.759 203.833 192.74 203.967 192.75 204.1C193.08 207.281 193.676 210.428 194.53 213.51C196.631 222.269 198.164 231.154 199.12 240.11Z" fill="white"></path><path d="M197.79 241.97L197.61 240.27C196.642 231.387 195.106 222.576 193.01 213.89C192.127 210.725 191.518 207.49 191.19 204.22C191.152 203.851 191.2 203.479 191.33 203.132C191.46 202.785 191.669 202.473 191.94 202.22C193.829 200.488 196.07 199.185 198.51 198.4C200.062 197.885 201.753 197.987 203.231 198.685C204.71 199.383 205.862 200.624 206.45 202.15C208.45 207.41 211.55 217.59 209.1 226.72C205.59 239.79 200.1 241.4 199.46 241.54L197.79 241.97ZM194.24 204.29C194.582 207.273 195.154 210.225 195.95 213.12C197.916 221.169 199.389 229.331 200.36 237.56C201.91 236.13 204.3 232.94 206.17 225.98C208.39 217.69 205.53 208.22 203.62 203.3C203.324 202.495 202.726 201.837 201.954 201.464C201.182 201.091 200.295 201.032 199.48 201.3C197.547 201.928 195.764 202.946 194.24 204.29Z" fill="#150035"></path><path d="M200.13 302.34C195.41 302.34 193.53 300.25 193.31 299.99L195.62 297.99C195.68 298.06 197.15 299.58 201.35 299.23L201.61 302.23C201.09 302.32 200.59 302.34 200.13 302.34Z" fill="#150035"></path><path d="M187.43 356.32L184.54 355.37C184.67 354.99 187.7 346.15 199.86 343.28L200.56 346.23C190.12 348.7 187.53 356.04 187.43 356.32Z" fill="#150035"></path><path d="M183.91 372.04L180.91 371.52C181.02 370.86 183.81 355.43 194.18 353.4L194.76 356.4C186.45 358.04 183.93 371.89 183.91 372.04Z" fill="#150035"></path><path d="M361.51 351.94C360.64 345.16 368.51 341.08 368.51 341.08C395.44 332.36 417.17 313.08 417.17 313.08C434.48 314.63 456.87 304.53 456.87 304.53C456.87 304.53 476.63 301.44 486.74 299.61C496.85 297.78 519.44 292.91 516.43 275.84C513.42 258.77 487.6 259.64 470.53 261.61C457.7 263.09 418.45 268.88 399.74 271.61C393.017 272.609 386.509 274.732 380.49 277.89C371.49 282.58 357.84 289.8 348.21 295.14L361.51 351.94Z" fill="#EFDBC5"></path><path d="M360 352.13C359 344.39 367.44 339.92 367.8 339.73L368.04 339.63C394.33 331.12 415.94 312.16 416.15 311.97L416.64 311.54L417.3 311.6C434 313.08 456.02 303.27 456.24 303.17L456.63 303.06C456.83 303.06 476.48 299.95 486.46 298.14C507.55 294.32 516.87 287.14 514.93 276.14C512.85 264.37 497.93 260 470.69 263.14C457.69 264.64 416.89 270.66 399.96 273.19C393.401 274.158 387.053 276.224 381.18 279.3C371.65 284.3 358.32 291.3 348.94 296.54L347.47 293.88C356.87 288.67 370.23 281.61 379.78 276.61C385.951 273.378 392.62 271.205 399.51 270.18C416.46 267.66 457.3 261.62 470.35 260.12C499.91 256.7 515.48 261.77 517.92 275.6C520.18 288.4 509.78 296.99 487 301.12C477.53 302.84 459.41 305.69 457.3 306.02C454.96 307.02 434.41 315.89 417.67 314.67C414.26 317.57 393.73 334.46 369.11 342.47C368.26 342.94 362.34 346.47 363.02 351.73L360 352.13Z" fill="#150035"></path><path d="M416.37 314.4C410.909 311.054 406.034 306.835 401.94 301.91L404.33 300.05C408.235 304.672 412.849 308.645 418 311.82L416.37 314.4Z" fill="#150035"></path><path d="M490.37 295.48V292.48C490.55 292.48 508.64 292.37 514.18 283.93L516.72 285.59C510.29 295.37 491.18 295.48 490.37 295.48Z" fill="#150035"></path><path d="M350.06 301.22C347.69 294.8 354.44 289.07 354.44 289.07C378.74 274.55 395.62 250.93 395.62 250.93C412.83 248.57 432.4 233.72 432.4 233.72C432.4 233.72 450.97 226.29 460.4 222.24C469.83 218.19 490.77 208.4 484.02 192.44C477.27 176.48 452.3 183.09 436.1 188.83C423.92 193.14 386.96 207.56 369.35 214.46C363.026 216.937 357.162 220.456 352 224.87C344.31 231.45 332.59 241.55 324.4 248.87C311.24 260.72 284.24 289.04 284.24 289.04C277.16 294.1 270.41 300.85 266.69 306.59C262.97 312.33 254.44 323.04 254.44 323.04L350.06 301.22Z" fill="#EFDBC5"></path><path d="M255.62 323.95L253.25 322.05C253.34 321.94 261.79 311.4 265.42 305.79C269.22 299.92 276.04 293.08 283.24 287.92C285.06 286.01 310.74 259.13 323.39 247.77C331.45 240.54 342.86 230.7 351.02 223.72C356.314 219.189 362.331 215.579 368.82 213.04C388.68 205.26 423.77 191.59 435.61 187.4C463.66 177.46 479.97 178.91 485.44 191.85C490.5 203.85 482.29 214.52 461.02 223.64C452.16 227.43 435.14 234.26 433.16 235.05C431.11 236.58 413.05 249.79 396.46 252.34C393.79 255.94 377.55 276.99 355.35 290.34C354.63 290.99 349.65 295.76 351.48 300.73L348.63 301.78C345.93 294.46 353.15 288.21 353.46 287.95L353.66 287.8C377.42 273.62 394.22 250.32 394.38 250.09L394.76 249.55L395.41 249.46C412.02 247.19 431.29 232.69 431.49 232.55L431.84 232.35C432.03 232.27 450.49 224.88 459.84 220.89C479.54 212.44 487.01 203.35 482.66 193.07C478.01 182.07 462.53 181.13 436.66 190.3C424.86 194.48 389.81 208.14 369.96 215.91C363.779 218.313 358.046 221.737 353 226.04C344.86 233.04 333.47 242.83 325.43 250.04C312.43 261.68 285.62 289.84 285.35 290.12L285.14 290.31C278.14 295.31 271.6 301.85 267.98 307.45C264.36 313.05 256 323.51 255.62 323.95Z" fill="#150035"></path><path d="M415.8 214.2C414.5 211.721 413.364 209.159 412.4 206.53L415.28 205.53C416.196 208.017 417.272 210.442 418.5 212.79L415.8 214.2Z" fill="#150035"></path><path d="M395.13 252.37C389.064 250.323 383.372 247.3 378.28 243.42L380.2 241.04C385.015 244.682 390.383 247.529 396.1 249.47L395.13 252.37Z" fill="#150035"></path><path d="M250.75 562.58C249.009 558.768 248.164 554.609 248.28 550.42V245.42C248.28 228.92 258.28 209.74 270.7 202.6L386.39 135.8C391.62 132.8 396.39 132.42 400.24 134.22C406.89 136.56 412.79 142.22 412.79 142.22L408.57 148.67C408.726 149.998 408.809 151.333 408.82 152.67V457.67C408.82 474.18 398.82 493.35 386.4 500.5L270.7 567.36L266.7 575.21C263.451 574.411 260.399 572.956 257.732 570.936C255.065 568.915 252.839 566.371 251.19 563.46L251.11 563.3L250.78 562.65L250.75 562.58Z" fill="#150035"></path><path d="M267.53 576.91L266.42 576.71C262.95 575.877 259.689 574.337 256.841 572.186C253.994 570.035 251.62 567.32 249.87 564.21L249.77 564.01L249.51 563.5L249.4 563.28L250.75 562.57L249.38 563.25C247.542 559.228 246.646 554.84 246.76 550.42V245.42C246.76 228.42 257.16 208.66 269.94 201.28L385.63 134.48C391.06 131.35 396.25 130.76 400.63 132.74H400.73C407.62 135.16 413.59 140.88 413.84 141.12L414.74 142L410.13 149.04C410.254 150.243 410.317 151.451 410.32 152.66V457.66C410.32 474.66 399.93 494.42 387.15 501.8L271.84 568.45L267.53 576.91ZM252.14 561.97L252.23 562.16L252.44 562.57C255.382 567.773 260.195 571.659 265.9 573.44L269.55 566.27L269.94 566.05L385.63 499.25C397.57 492.36 407.29 473.74 407.29 457.74V152.74C407.283 151.447 407.203 150.154 407.05 148.87L406.8 146.62L407.93 146.94L410.83 142.51C407.736 139.761 404.221 137.526 400.42 135.89H400.34L399.59 135.55C396.06 133.89 391.76 134.41 387.15 137.07L271.45 203.87C259.52 210.77 249.8 229.39 249.8 245.38V550.42C249.684 554.373 250.474 558.3 252.11 561.9L252.14 561.97Z" fill="#150035"></path><path d="M280.5 573.59L396.2 506.79C408.57 499.64 418.61 480.47 418.61 463.96V158.96C418.61 142.46 408.61 134.87 396.2 142.02L280.5 208.82C268.12 215.96 258.09 235.14 258.09 251.64V556.64C258.09 573.15 268.12 580.73 280.5 573.59Z" fill="white"></path><path d="M271.59 577.79C269.304 577.807 267.054 577.217 265.07 576.08C259.67 572.96 256.57 565.88 256.57 556.64V251.64C256.57 234.64 266.96 214.88 279.74 207.5L395.44 140.7C401.32 137.31 407.06 136.89 411.62 139.52C417.03 142.64 420.13 149.73 420.13 158.96V463.96C420.13 480.96 409.73 500.73 396.96 508.1L281.26 574.9L280.5 573.59L281.26 574.9C278.345 576.693 275.011 577.689 271.59 577.79ZM405.1 140.79C402.218 140.891 399.412 141.742 396.96 143.26L281.26 210.04C269.32 216.94 259.61 235.56 259.61 251.55V556.64C259.61 564.76 262.15 570.89 266.61 573.45C270.19 575.52 274.86 575.1 279.76 572.27L395.46 505.47C407.4 498.58 417.11 479.96 417.11 463.96V158.96C417.11 150.84 414.56 144.72 410.11 142.15C408.589 141.265 406.86 140.803 405.1 140.81V140.79Z" fill="#150035"></path><path d="M287.5 214.38L398.67 150.19C404.9 146.6 410 149.54 410 156.73V465.14C410 478.35 400.64 494.57 389.19 501.14L278 565.36C271.77 568.96 266.68 566.02 266.68 558.82V250.42C266.7 237.2 276.06 220.98 287.5 214.38Z" fill="#71C5C9"></path><path d="M273 568.22C271.731 568.235 270.481 567.911 269.38 567.28C266.8 565.8 265.38 562.79 265.38 558.82V250.42C265.38 236.75 275.01 220.07 286.85 213.24L398 149.04C401.44 147.04 404.75 146.78 407.32 148.27C409.89 149.76 411.32 152.75 411.32 156.72V465.14C411.32 478.81 401.69 495.49 389.85 502.32L278.68 566.5C276.97 567.562 275.011 568.155 273 568.22ZM403.7 149.97C402.15 150.039 400.645 150.508 399.33 151.33L288.16 215.52C277.05 221.93 268.01 237.59 268.01 250.42V558.82C268.01 561.82 268.96 564.01 270.68 565C272.4 565.99 274.78 565.71 277.36 564.22L388.53 500.04C399.64 493.62 408.68 477.97 408.68 465.14V156.73C408.68 153.73 407.74 151.55 406.01 150.56C405.308 150.157 404.509 149.953 403.7 149.97Z" fill="#150035"></path><path d="M269.26 563.97C271.198 564.282 273.182 563.846 274.81 562.75L386 498.57C397.12 492.15 406.16 476.48 406.16 463.65V155.24C406.16 152.78 405.51 150.86 404.29 149.68L402.96 148.39L405.2 147.59C408.85 148.46 411.31 151.78 411.31 156.65V465.04C411.31 478.7 401.69 495.37 389.86 502.2L278.67 566.4C276.957 567.45 274.999 568.033 272.99 568.09C271.156 568.125 269.383 567.43 268.06 566.16L267.06 562.87L269.26 563.97Z" fill="#150035"></path><path d="M262.89 227.88L254.15 222.96L254.7 221.99L263.44 226.91L262.89 227.88Z" fill="#3BA1FD"></path><path d="M396.91 141.43C394.427 138.939 391.318 137.163 387.91 136.29L388.16 135.21C391.796 136.117 395.111 138.01 397.74 140.68L396.91 141.43Z" fill="#3BA1FD"></path><path d="M392.27 144.09C389.787 141.596 386.678 139.818 383.27 138.94L383.52 137.86C387.153 138.767 390.465 140.66 393.09 143.33L392.27 144.09Z" fill="#3BA1FD"></path><path d="M250.175 234.049L249.682 235.044L258.666 239.502L259.16 238.507L250.175 234.049Z" fill="#3BA1FD"></path><path d="M257 541.8C253.742 540.095 250.677 538.043 247.86 535.68L248.62 534.86C251.368 537.153 254.351 539.147 257.52 540.81L257 541.8Z" fill="#3BA1FD"></path><path d="M257 556.16C253.754 554.456 250.702 552.404 247.9 550.04L248.66 549.22C251.402 551.534 254.386 553.546 257.56 555.22L257 556.16Z" fill="#3BA1FD"></path><path d="M257 562.04C253.739 560.344 250.674 558.295 247.86 555.93L248.62 555.11C251.365 557.42 254.349 559.432 257.52 561.11L257 562.04Z" fill="#3BA1FD"></path><path d="M253 385.32L253.37 385.54C254.75 386.33 255.87 385.49 255.87 383.65V362.97C255.852 362.037 255.617 361.121 255.183 360.294C254.749 359.468 254.128 358.754 253.37 358.21L253 358.04C251.62 357.25 250.51 358.09 250.51 359.93V380.61C250.53 381.535 250.765 382.442 251.197 383.26C251.63 384.078 252.247 384.783 253 385.32Z" fill="#150035"></path><path d="M254.33 386.39C253.882 386.379 253.444 386.252 253.06 386.02L252.69 385.81C251.846 385.217 251.154 384.431 250.673 383.518C250.191 382.606 249.933 381.592 249.92 380.56V359.88C249.875 359.4 249.957 358.917 250.157 358.478C250.357 358.039 250.668 357.661 251.06 357.38C251.402 357.201 251.787 357.118 252.173 357.141C252.559 357.164 252.931 357.292 253.25 357.51L253.62 357.73C254.465 358.321 255.156 359.104 255.638 360.015C256.12 360.926 256.378 361.939 256.39 362.97V383.65C256.437 384.13 256.356 384.614 256.156 385.053C255.956 385.492 255.643 385.871 255.25 386.15C254.97 386.31 254.652 386.392 254.33 386.39ZM253.25 384.84L253.62 385.06C253.774 385.172 253.954 385.242 254.143 385.265C254.332 385.288 254.524 385.262 254.7 385.19C254.914 384.999 255.079 384.76 255.18 384.491C255.281 384.223 255.315 383.934 255.28 383.65V362.97C255.264 362.134 255.055 361.313 254.67 360.571C254.285 359.828 253.734 359.185 253.06 358.69L252.69 358.48C252.538 358.368 252.36 358.296 252.173 358.271C251.986 358.247 251.795 358.27 251.62 358.34C251.402 358.528 251.234 358.767 251.131 359.036C251.028 359.304 250.993 359.594 251.03 359.88V380.56C251.048 381.396 251.257 382.216 251.642 382.958C252.027 383.7 252.577 384.344 253.25 384.84Z" fill="#3BA1FD"></path><path d="M253 352.14L253.37 352.36C254.75 353.15 255.87 352.31 255.87 350.47V329.79C255.852 328.857 255.617 327.941 255.183 327.114C254.749 326.288 254.128 325.574 253.37 325.03L253 324.81C251.62 324.02 250.51 324.86 250.51 326.7V347.38C250.527 348.312 250.76 349.228 251.193 350.054C251.625 350.881 252.244 351.595 253 352.14Z" fill="#150035"></path><path d="M254.33 353.21C253.882 353.199 253.444 353.072 253.06 352.84L252.69 352.62C251.845 352.029 251.154 351.246 250.672 350.335C250.19 349.423 249.932 348.411 249.92 347.38V326.7C249.875 326.22 249.957 325.737 250.157 325.298C250.357 324.859 250.668 324.481 251.06 324.2C251.402 324.021 251.787 323.938 252.173 323.961C252.559 323.984 252.931 324.112 253.25 324.33L253.62 324.55C254.465 325.141 255.156 325.924 255.638 326.835C256.12 327.747 256.378 328.759 256.39 329.79V350.47C256.437 350.95 256.356 351.434 256.156 351.873C255.956 352.312 255.643 352.691 255.25 352.97C254.97 353.13 254.652 353.212 254.33 353.21ZM252 325.04C251.874 325.04 251.751 325.071 251.64 325.13C251.422 325.318 251.254 325.557 251.151 325.826C251.048 326.094 251.013 326.385 251.05 326.67V347.35C251.066 348.186 251.275 349.007 251.66 349.749C252.045 350.492 252.596 351.135 253.27 351.63L253.64 351.84C253.794 351.952 253.973 352.024 254.162 352.049C254.351 352.073 254.543 352.05 254.72 351.98C254.934 351.789 255.099 351.55 255.2 351.282C255.301 351.013 255.335 350.724 255.3 350.44V329.79C255.284 328.954 255.075 328.133 254.69 327.391C254.305 326.648 253.754 326.005 253.08 325.51L252.71 325.29C252.498 325.148 252.254 325.063 252 325.04Z" fill="#3BA1FD"></path><path d="M253 314.29L253.37 314.51C254.75 315.3 255.87 314.46 255.87 312.62V301.04C255.852 300.107 255.617 299.191 255.183 298.364C254.749 297.538 254.128 296.824 253.37 296.28L253 296.04C251.62 295.25 250.51 296.04 250.51 297.93V309.56C250.531 310.487 250.767 311.397 251.199 312.218C251.631 313.038 252.248 313.748 253 314.29Z" fill="#150035"></path><path d="M254.33 315.36C253.882 315.349 253.444 315.222 253.06 314.99L252.69 314.77C251.846 314.179 251.155 313.395 250.673 312.484C250.191 311.573 249.933 310.56 249.92 309.53V297.9C249.874 297.42 249.955 296.936 250.155 296.497C250.355 296.059 250.667 295.68 251.06 295.4C251.402 295.221 251.787 295.138 252.173 295.161C252.559 295.184 252.931 295.312 253.25 295.53L253.62 295.74C254.465 296.333 255.157 297.118 255.638 298.031C256.12 298.944 256.377 299.958 256.39 300.99V312.62C256.437 313.1 256.356 313.584 256.156 314.023C255.956 314.462 255.643 314.841 255.25 315.12C254.97 315.28 254.652 315.362 254.33 315.36ZM252 296.27C251.874 296.265 251.749 296.297 251.64 296.36C251.421 296.547 251.253 296.786 251.15 297.055C251.047 297.324 251.012 297.614 251.05 297.9V309.53C251.068 310.366 251.277 311.186 251.662 311.928C252.047 312.67 252.597 313.314 253.27 313.81L253.64 314.02C253.794 314.132 253.973 314.204 254.162 314.229C254.351 314.253 254.543 314.229 254.72 314.16C254.933 313.969 255.098 313.729 255.199 313.461C255.3 313.193 255.334 312.904 255.3 312.62V301.04C255.284 300.204 255.075 299.383 254.69 298.641C254.305 297.898 253.754 297.255 253.08 296.76L252.71 296.54C252.499 296.393 252.255 296.3 252 296.27Z" fill="#3BA1FD"></path><path d="M253.34 296.27L253 296.04H252.93C252.811 296.391 252.754 296.76 252.76 297.13V308.74C252.772 309.673 253.004 310.591 253.436 311.418C253.869 312.245 254.49 312.958 255.25 313.5L255.62 313.72C255.767 313.385 255.852 313.026 255.87 312.66V301.04C255.85 300.103 255.611 299.183 255.172 298.354C254.732 297.526 254.105 296.812 253.34 296.27Z" fill="#150035"></path><path d="M255.83 314.47L254.83 313.95C254.008 313.352 253.338 312.57 252.871 311.668C252.404 310.765 252.154 309.766 252.14 308.75V297.11C252.137 296.679 252.204 296.249 252.34 295.84L252.56 295.21L253.56 295.78C254.404 296.373 255.096 297.159 255.577 298.072C256.059 298.984 256.317 299.998 256.33 301.03V312.66C256.331 312.931 256.29 313.201 256.21 313.46L256.28 313.51L255.89 314.39H255.82L255.83 314.47ZM253.29 296.9C253.29 296.97 253.29 297.04 253.29 297.11V308.74C253.315 309.53 253.506 310.306 253.851 311.018C254.196 311.729 254.686 312.36 255.29 312.87C255.295 312.8 255.295 312.73 255.29 312.66V301.04C255.269 300.248 255.079 299.469 254.734 298.755C254.39 298.042 253.897 297.409 253.29 296.9Z" fill="#3BA1FD"></path><path d="M253 305.24L253.37 305.46C254.75 306.25 255.87 305.41 255.87 303.57V301.04C255.852 300.107 255.617 299.191 255.183 298.364C254.749 297.538 254.128 296.824 253.37 296.28L253 296.04C251.62 295.25 250.51 296.04 250.51 297.93V300.51C250.531 301.437 250.767 302.347 251.199 303.168C251.631 303.988 252.248 304.698 253 305.24Z" fill="#3BA1FD"></path><path d="M254.33 306.31C253.882 306.299 253.444 306.172 253.06 305.94L252.69 305.72C251.845 305.129 251.154 304.346 250.672 303.435C250.19 302.523 249.932 301.511 249.92 300.48V297.9C249.874 297.42 249.955 296.936 250.155 296.497C250.355 296.059 250.667 295.68 251.06 295.4C251.402 295.221 251.787 295.138 252.173 295.161C252.559 295.184 252.931 295.312 253.25 295.53L253.62 295.74C254.465 296.333 255.157 297.118 255.638 298.031C256.12 298.944 256.377 299.958 256.39 300.99V303.57C256.437 304.05 256.356 304.534 256.156 304.973C255.956 305.412 255.643 305.791 255.25 306.07C254.97 306.23 254.652 306.312 254.33 306.31ZM251.98 296.31C251.854 296.305 251.729 296.337 251.62 296.4C251.401 296.587 251.233 296.826 251.13 297.095C251.027 297.364 250.992 297.654 251.03 297.94V300.52C251.048 301.356 251.257 302.176 251.642 302.918C252.027 303.66 252.577 304.304 253.25 304.8L253.62 305.01C253.773 305.12 253.951 305.19 254.137 305.215C254.324 305.239 254.514 305.217 254.69 305.15C254.907 304.962 255.075 304.722 255.178 304.454C255.281 304.185 255.316 303.895 255.28 303.61V301.04C255.264 300.204 255.055 299.383 254.67 298.641C254.285 297.898 253.734 297.255 253.06 296.76L252.69 296.54C252.485 296.396 252.248 296.303 252 296.27L251.98 296.31Z" fill="#3BA1FD"></path><path d="M257.242 216.913L256.675 217.868L265.582 223.16L266.149 222.206L257.242 216.913Z" fill="#3BA1FD"></path><path d="M399.673 468.043L399.106 468.997L408.012 474.289L408.579 473.335L399.673 468.043Z" fill="#3BA1FD"></path><path d="M400.631 155.911L400.064 156.865L408.97 162.158L409.537 161.203L400.631 155.911Z" fill="#3BA1FD"></path><path d="M391.25 485.515L390.682 486.469L399.588 491.763L400.155 490.809L391.25 485.515Z" fill="#3BA1FD"></path><path d="M277.245 554.349L276.678 555.303L285.584 560.596L286.151 559.641L277.245 554.349Z" fill="#3BA1FD"></path><path d="M366.69 152.8L367.17 153.08C368.93 154.08 368.69 155.91 366.63 157.08L365.85 157.42C364.792 157.998 363.613 158.321 362.407 158.361C361.202 158.4 360.004 158.157 358.91 157.65L358.43 157.37C356.67 156.37 356.91 154.54 358.97 153.37L359.75 153.03C360.807 152.449 361.987 152.126 363.193 152.086C364.398 152.046 365.596 152.291 366.69 152.8Z" fill="#150035"></path><path d="M362 158.92C360.823 158.952 359.658 158.677 358.62 158.12L358.14 157.84C357.717 157.633 357.358 157.316 357.101 156.921C356.844 156.527 356.699 156.07 356.68 155.6C356.746 155.011 356.965 154.45 357.316 153.972C357.667 153.495 358.137 153.118 358.68 152.88L359.52 152.51C360.656 151.891 361.923 151.55 363.217 151.517C364.511 151.484 365.794 151.759 366.96 152.32L367.44 152.6C367.861 152.806 368.219 153.122 368.476 153.515C368.733 153.907 368.879 154.361 368.9 154.83C368.835 155.42 368.616 155.983 368.265 156.462C367.914 156.942 367.443 157.32 366.9 157.56L366.07 157.92C364.821 158.594 363.42 158.939 362 158.92ZM363.61 152.64C362.36 152.624 361.127 152.92 360.02 153.5L359.18 153.87C358.823 154.022 358.509 154.26 358.268 154.564C358.027 154.868 357.866 155.228 357.8 155.61C357.828 155.883 357.926 156.143 358.086 156.366C358.245 156.589 358.461 156.766 358.71 156.88L359.18 157.16C360.189 157.616 361.29 157.832 362.397 157.792C363.504 157.752 364.586 157.457 365.56 156.93L366.4 156.56C366.758 156.41 367.073 156.172 367.314 155.868C367.555 155.563 367.716 155.203 367.78 154.82C367.754 154.548 367.655 154.288 367.496 154.067C367.336 153.845 367.12 153.67 366.87 153.56L366.4 153.28C365.543 152.832 364.586 152.612 363.62 152.64H363.61Z" fill="#3BA1FD"></path><path d="M358.12 157.12C358.38 156.884 358.665 156.676 358.97 156.5L359.75 156.16C360.81 155.585 361.989 155.266 363.194 155.228C364.399 155.19 365.596 155.434 366.69 155.94L367.16 156.22C367.274 156.286 367.381 156.363 367.48 156.45C367.769 156.258 368.001 155.991 368.151 155.677C368.3 155.363 368.362 155.015 368.329 154.669C368.296 154.323 368.17 153.993 367.964 153.713C367.758 153.433 367.48 153.214 367.16 153.08L366.69 152.8C365.597 152.289 364.399 152.043 363.194 152.081C361.988 152.119 360.808 152.441 359.75 153.02L358.97 153.36C357.05 154.45 356.73 156.04 358.12 157.12Z" fill="#150035"></path><path d="M358.15 157.85L357.78 157.57C357.439 157.336 357.163 157.02 356.976 156.651C356.789 156.283 356.698 155.873 356.71 155.46C356.802 154.897 357.033 154.367 357.382 153.916C357.732 153.465 358.188 153.109 358.71 152.88L359.55 152.51C360.686 151.891 361.953 151.55 363.247 151.517C364.541 151.484 365.824 151.759 366.99 152.32L367.47 152.6C367.852 152.793 368.182 153.076 368.431 153.424C368.68 153.772 368.841 154.176 368.9 154.6C368.928 155.034 368.853 155.468 368.679 155.867C368.505 156.265 368.238 156.616 367.9 156.89L367.56 157.21L367.19 156.92C367.04 156.81 367 156.77 366.93 156.73L366.45 156.45C365.442 155.995 364.343 155.778 363.238 155.818C362.133 155.858 361.052 156.153 360.08 156.68L359.24 157.04C358.988 157.19 358.753 157.368 358.54 157.57L358.15 157.85ZM363.61 152.64C362.361 152.626 361.127 152.922 360.02 153.5L359.19 153.87C358.848 154.02 358.545 154.249 358.308 154.537C358.07 154.825 357.903 155.165 357.82 155.53C357.815 155.686 357.84 155.841 357.895 155.987C357.95 156.133 358.033 156.267 358.14 156.38C358.317 156.251 358.501 156.131 358.69 156.02L359.53 155.65C360.666 155.031 361.933 154.69 363.227 154.657C364.521 154.624 365.804 154.899 366.97 155.46L367.41 155.72C367.654 155.445 367.783 155.087 367.77 154.72C367.721 154.475 367.615 154.245 367.46 154.049C367.305 153.852 367.107 153.695 366.88 153.59L366.4 153.31C365.544 152.848 364.582 152.617 363.61 152.64Z" fill="#3BA1FD"></path><path d="M369.11 136.42L367.59 133.78L378.43 127.55C391.79 119.86 409.16 122.17 419.71 133.06L417.53 135.17C407.93 125.27 392.13 123.17 379.95 130.17L369.11 136.42Z" fill="#150035"></path><path d="M382.74 369.51L292.69 421.51C291.3 422.31 290.18 421.51 290.18 419.61V321.51C290.194 320.571 290.429 319.648 290.865 318.816C291.301 317.984 291.926 317.266 292.69 316.72L382.74 264.72C384.13 263.92 385.25 264.72 385.25 266.61V364.72C385.236 365.659 385.001 366.582 384.565 367.414C384.129 368.246 383.504 368.964 382.74 369.51Z" fill="#C7E9E1"></path><path d="M382.55 371.1L292.88 422.88C290.68 424.15 288.88 423.11 288.88 420.58V320.3C288.957 318.918 289.359 317.573 290.055 316.376C290.75 315.179 291.718 314.162 292.88 313.41L382.55 261.63C384.75 260.36 386.55 261.39 386.55 263.93V364.2C386.473 365.584 386.071 366.93 385.376 368.129C384.68 369.327 383.712 370.346 382.55 371.1ZM292.88 316.38C292.469 316.647 292.128 317.007 291.883 317.431C291.638 317.855 291.496 318.331 291.47 318.82V419.09C291.47 419.98 292.1 420.35 292.88 419.9L382.55 368.12C382.961 367.856 383.303 367.498 383.548 367.075C383.793 366.653 383.935 366.178 383.96 365.69V265.42C383.96 264.52 383.33 264.16 382.55 264.61L292.88 316.38Z" fill="#150035"></path><path d="M298 331.04L295.42 332.53V322.12C295.465 321.319 295.697 320.539 296.098 319.845C296.5 319.15 297.059 318.559 297.73 318.12L306.19 313.24V316.24L298 320.94V331.04Z" fill="#150035"></path><path d="M380.05 283.61L377.47 285.1V275.04L369.28 279.77V276.77L377.74 271.89C379.02 271.15 380.05 271.75 380.05 273.22V283.61Z" fill="#150035"></path><path d="M377.74 367.61L369.28 372.5V369.5L377.47 364.76V354.71L380.05 353.23V363.6C380.008 364.403 379.776 365.185 379.375 365.881C378.974 366.578 378.413 367.17 377.74 367.61Z" fill="#150035"></path><path d="M306.15 408.94L297.69 413.83C296.41 414.56 295.38 413.96 295.38 412.49V402.11L297.96 400.62V410.69L306.15 405.96V408.94Z" fill="#150035"></path><path d="M402.79 414.51C402.79 414.51 384.39 427.68 381.19 439.51C378.04 451.11 388.03 462.31 396.83 463.87C396.83 463.87 396.72 460.75 397.05 460.69C399.18 460.3 408.37 456.56 422.97 448.19C441.54 437.56 439.87 424.32 439.57 418.25C439.07 407.78 430.8 398.5 430.8 398.5L402.79 414.51Z" fill="#150035"></path><path d="M407.77 417.65C407.77 417.65 389.37 430.81 386.17 442.65C383 454.22 392.23 462.24 401 463.81C401.33 463.875 401.67 463.875 402 463.81C404.13 463.43 413.32 459.69 427.93 451.32C446.49 440.69 444.82 427.45 444.52 421.37C444.02 410.91 435.75 401.63 435.75 401.63L407.77 417.65Z" fill="#EFDBC5"></path><path d="M401.52 465.37C401.265 465.371 401.01 465.348 400.76 465.3C397.907 464.796 395.184 463.723 392.755 462.144C390.325 460.565 388.239 458.513 386.62 456.11C385.332 454.066 384.494 451.77 384.163 449.377C383.832 446.984 384.015 444.547 384.7 442.23C388.01 430.04 406.11 416.97 406.88 416.42L408.65 418.89C408.47 419.02 390.65 431.89 387.65 443.02C387.08 444.932 386.923 446.944 387.19 448.922C387.457 450.9 388.142 452.798 389.2 454.49C390.591 456.541 392.381 458.291 394.464 459.634C396.546 460.978 398.878 461.888 401.32 462.31C401.475 462.34 401.635 462.34 401.79 462.31C403.59 461.98 412.5 458.43 427.22 449.99C444.11 440.32 443.46 428.63 443.11 422.34V421.44C442.63 411.65 434.79 402.72 434.71 402.63L436.98 400.63C437.34 401.03 445.62 410.44 446.14 421.31L446.19 422.19C446.55 428.64 447.29 442.05 428.78 452.65C414.12 461.05 404.78 464.88 402.38 465.32C402.096 465.365 401.808 465.382 401.52 465.37Z" fill="#150035"></path><path d="M402.8 462.04C400.94 460.51 397.38 456.37 394.85 445.9C394.725 445.372 394.78 444.818 395.006 444.325C395.233 443.832 395.618 443.429 396.1 443.18C400.86 440.72 414.47 434.43 419.24 440.49C425.06 447.88 417.5 457.31 409 460.95L405.21 462.41C404.812 462.57 404.378 462.621 403.954 462.555C403.53 462.49 403.131 462.312 402.8 462.04Z" fill="white"></path><path d="M404.32 464.04C403.415 464.041 402.538 463.726 401.84 463.15C399.84 461.49 396.01 457.07 393.38 446.2C393.168 445.344 393.25 444.442 393.613 443.639C393.976 442.835 394.598 442.177 395.38 441.77C401.11 438.77 415.02 432.64 420.38 439.49C421.44 440.795 422.175 442.333 422.523 443.978C422.87 445.623 422.822 447.328 422.38 448.95C421.04 454.21 415.88 459.57 409.53 462.28L405.69 463.77C405.253 463.94 404.789 464.031 404.32 464.04ZM412.85 439.39C408.36 439.39 402.2 441.67 396.8 444.47C396.623 444.562 396.481 444.71 396.396 444.89C396.311 445.071 396.288 445.275 396.33 445.47C398.84 455.86 402.33 459.65 403.76 460.8C403.887 460.9 404.038 460.964 404.199 460.985C404.359 461.006 404.522 460.983 404.67 460.92L408.46 459.46C413.84 457.15 418.4 452.46 419.51 448.19C419.834 447.018 419.87 445.785 419.616 444.596C419.362 443.407 418.825 442.297 418.05 441.36C417 440.04 415.11 439.43 412.85 439.43V439.39Z" fill="#150035"></path><path d="M448.37 382.71C448.37 382.71 455.3 378.21 450.24 385.3C445.18 392.39 432.69 404.2 432.69 404.2L417.58 420.74C417.58 420.74 401.64 424.79 394.21 410.28C386.78 395.77 402 380.91 405 378.21C405.93 377.39 407.63 375.6 409.41 373.66C411.18 371.725 413.591 370.495 416.197 370.197C418.803 369.899 421.429 370.554 423.59 372.04L435.59 380.25L448.37 382.71Z" fill="#150035"></path><path d="M445.9 339.86C455.02 353.7 458.05 370.57 458.05 370.57C458.05 370.57 460.42 381.37 455.35 388.46C450.28 395.55 437.8 407.36 437.8 407.36L422.7 423.9C422.7 423.9 406.75 427.95 399.33 413.43C391.91 398.91 407.09 384.07 410.13 381.37C412.43 379.37 419.4 371.46 420.76 369.74L445.9 339.86Z" fill="#EFDBC5"></path><path d="M417.78 425.9C412.07 425.9 403.1 424.13 397.98 414.12C389.78 398.12 407.12 382.02 409.12 380.24C411.28 378.32 418.21 370.51 419.57 368.8L421.95 370.68C420.48 372.55 413.5 380.41 411.14 382.51C409.32 384.13 393.52 398.75 400.68 412.74C406.83 424.74 419.44 422.99 421.9 422.51L436.68 406.33C436.88 406.14 449.2 394.46 454.12 387.58C458.74 381.11 456.59 371 456.57 370.9C456.55 370.8 453.46 354.1 444.64 340.69L447.17 339.02C456.35 352.96 459.42 369.6 459.55 370.3C459.64 370.71 461.98 381.79 456.55 389.3C451.46 396.43 439.32 407.93 438.81 408.42L423.47 425.22L423.03 425.33C421.305 425.706 419.545 425.897 417.78 425.9Z" fill="#150035"></path><path d="M411.65 401.62C411.09 397.71 422.53 388.62 433.42 391.41C438.86 392.8 439.96 396.79 439.69 400.41C439.362 404.009 437.833 407.394 435.35 410.02L425.07 421.28C424.769 421.612 424.399 421.874 423.986 422.048C423.572 422.221 423.126 422.3 422.678 422.281C422.23 422.262 421.792 422.145 421.395 421.937C420.998 421.729 420.651 421.437 420.38 421.08C417.51 417.32 412.85 410.09 411.65 401.62Z" fill="white"></path><path d="M422.8 423.82H422.59C421.923 423.791 421.271 423.616 420.68 423.307C420.089 422.997 419.573 422.561 419.17 422.03C416.34 418.31 411.41 410.74 410.17 401.84C409.81 399.34 412.22 396.76 413.69 395.44C418.29 391.32 426.29 388.02 433.81 389.95C438.99 391.27 441.62 395.04 441.23 400.55C440.854 404.479 439.179 408.17 436.47 411.04L426.19 422.29C425.764 422.768 425.242 423.152 424.658 423.415C424.074 423.679 423.441 423.817 422.8 423.82ZM429.18 392.41C424.205 392.529 419.432 394.398 415.7 397.69C413.7 399.47 413.08 400.92 413.15 401.41C414.32 409.63 418.94 416.69 421.59 420.18C421.724 420.358 421.896 420.504 422.093 420.608C422.29 420.711 422.507 420.77 422.73 420.78C422.959 420.799 423.19 420.763 423.402 420.674C423.615 420.586 423.803 420.447 423.95 420.27L434.23 409.04C436.475 406.659 437.865 403.598 438.18 400.34C438.47 396.34 436.79 393.86 433.04 392.9C431.778 392.579 430.482 392.414 429.18 392.41Z" fill="#150035"></path><path d="M241.49 222.7C241.49 222.7 250.68 257.7 250.68 308.92C250.54 326.416 249.341 343.888 247.09 361.24L244.55 373.44L241.49 222.7Z" fill="#EFDBC5"></path><path d="M246 373.75L243 373.13L245.55 360.93C247.765 343.683 248.951 326.319 249.1 308.93C249.1 258.46 240.1 223.44 239.96 223.1L242.9 222.33C242.99 222.68 252.14 258.08 252.14 308.93C251.987 326.496 250.785 344.037 248.54 361.46L246 373.75Z" fill="#150035"></path><path d="M333.92 602.24H331.29V596.17H333.92V602.24ZM333.92 590.09H331.29V584.04H333.92V590.09Z" fill="white"></path><path d="M458 441.39H455.37V435.39H458V441.39ZM458 429.27H455.37V423.2H458V429.27ZM458 417.12H455.37V411.04H458V417.12Z" fill="white"></path><path d="M471.83 427.53H465.83V424.9H471.83V427.53ZM459.72 427.53H453.64V424.9H459.72V427.53ZM447.57 427.53H441.49V424.9H447.57V427.53Z" fill="white"></path><path d="M491 446.28H485V443.64H491V446.28ZM478.85 446.28H472.77V443.64H478.85V446.28Z" fill="white"></path><path d="M215.52 145.77H209.45V143.14H215.52V145.77ZM203.37 145.77H197.3V143.14H203.37V145.77Z" fill="white"></path><path d="M348.13 113.88L275.25 155.96C272.03 157.82 269.42 155.84 269.42 151.55V55.44C269.42 51.15 272.03 46.16 275.25 44.3L348.13 2.23001C351.35 0.370011 353.95 2.34001 353.95 6.63001V102.75C354 107.04 351.35 112.04 348.13 113.88Z" fill="white"></path><path d="M272.93 158.18C272.14 158.184 271.363 157.977 270.68 157.58C268.91 156.58 267.9 154.37 267.9 151.58V55.44C267.9 50.59 270.79 45.12 274.49 42.99L347.37 0.910015C348.148 0.382363 349.054 0.0749628 349.992 0.0203879C350.931 -0.034187 351.866 0.166095 352.7 0.600014C354.46 1.60001 355.47 3.82001 355.47 6.60001V102.72C355.47 107.57 352.58 113.03 348.89 115.17L276 157.27C275.075 157.84 274.016 158.154 272.93 158.18ZM350.44 3.04001C349.891 3.07154 349.358 3.23999 348.89 3.53001L276 45.62C273.25 47.21 270.93 51.7 270.93 55.44V151.55C270.93 153.23 271.4 154.55 272.18 154.95C272.559 155.092 272.968 155.137 273.369 155.083C273.77 155.029 274.152 154.877 274.48 154.64L347.36 112.57C350.11 110.98 352.42 106.48 352.42 102.75V6.63001C352.42 4.96001 351.96 3.69002 351.17 3.23002C350.947 3.10426 350.696 3.03877 350.44 3.04001Z" fill="#150035"></path><path d="M345.32 93.74L278.05 132.58C276.76 133.33 275.71 132.58 275.71 130.81V54.4C275.723 53.5224 275.942 52.6601 276.348 51.8821C276.754 51.1041 277.337 50.4322 278.05 49.92L345.32 11.04C346.62 10.3 347.67 11.09 347.67 12.81V89.23C347.663 90.114 347.446 90.9837 347.038 91.7677C346.629 92.5517 346.04 93.2276 345.32 93.74Z" fill="#DB1C18"></path><path d="M277.12 134.38C276.643 134.383 276.173 134.259 275.76 134.02C275.236 133.674 274.813 133.194 274.537 132.629C274.261 132.065 274.141 131.436 274.19 130.81V54.4C274.2 53.2561 274.487 52.1317 275.027 51.1232C275.567 50.1147 276.343 49.2523 277.29 48.61L344.56 9.77C345.011 9.47547 345.534 9.30796 346.072 9.28508C346.611 9.26221 347.145 9.38481 347.62 9.64C348.141 9.98921 348.561 10.47 348.837 11.0337C349.113 11.5975 349.234 12.224 349.19 12.85V89.27C349.178 90.4146 348.889 91.5393 348.348 92.5477C347.806 93.5562 347.028 94.4182 346.08 95.06L278.81 133.9C278.298 134.204 277.716 134.37 277.12 134.38ZM346.12 12.38L278.81 51.24C278.328 51.6161 277.936 52.0949 277.663 52.6416C277.39 53.1882 277.242 53.7889 277.23 54.4V130.81C277.215 130.956 277.215 131.104 277.23 131.25L344.52 92.43C345.003 92.0539 345.395 91.5753 345.67 91.0289C345.945 90.4824 346.096 89.8816 346.11 89.27V12.85C346.127 12.7036 346.123 12.5555 346.1 12.41L346.12 12.38Z" fill="#150035"></path><path d="M69.78 425.19H67.15V419.11H69.78V425.19ZM69.78 413.04H67.15V406.96H69.78V413.04Z" fill="white"></path><path d="M86.25 466.76H83.61V460.76H86.25V466.76ZM86.25 454.64H83.61V448.57H86.25V454.64ZM86.25 442.49H83.61V436.42H86.25V442.49Z" fill="white"></path><path d="M100.1 452.91H94.1V450.27H100.1V452.91ZM87.99 452.91H81.91V450.27H88L87.99 452.91ZM75.84 452.91H69.76V450.27H75.84V452.91Z" fill="white"></path><path d="M193.92 376.87L121 418.95C117.78 420.81 115.18 418.84 115.18 414.55V318.43C115.18 314.14 117.78 309.16 121 307.3L193.88 265.22C197.1 263.36 199.71 265.33 199.71 269.62V365.74C199.75 370.04 197.14 375.04 193.92 376.87Z" fill="white"></path><path d="M118.72 421.17C117.931 421.173 117.156 420.969 116.47 420.58C114.71 419.58 113.7 417.36 113.7 414.58V318.43C113.7 313.58 116.59 308.12 120.28 305.98L193.16 263.9C193.938 263.373 194.845 263.067 195.784 263.014C196.722 262.961 197.657 263.164 198.49 263.6C200.26 264.6 201.27 266.81 201.27 269.6V365.74C201.27 370.59 198.37 376.06 194.68 378.19L121.8 420.27C120.87 420.835 119.808 421.146 118.72 421.17ZM196.24 266.04C195.686 266.072 195.149 266.244 194.68 266.54L121.8 308.61C119.05 310.2 116.73 314.7 116.73 318.43V414.55C116.73 416.22 117.2 417.49 117.99 417.95C118.368 418.089 118.774 418.133 119.173 418.079C119.573 418.025 119.952 417.874 120.28 417.64L193.16 375.56C195.91 373.97 198.23 369.48 198.23 365.74V269.63C198.23 267.95 197.76 266.68 196.97 266.23C196.749 266.1 196.496 266.034 196.24 266.04Z" fill="#150035"></path><path d="M191.12 356.74L123.85 395.58C122.55 396.32 121.5 395.53 121.5 393.81V317.39C121.513 316.513 121.733 315.651 122.141 314.874C122.55 314.098 123.135 313.428 123.85 312.92L191.12 274.04C192.41 273.29 193.46 274.04 193.46 275.81V352.22C193.453 353.104 193.238 353.975 192.831 354.76C192.424 355.545 191.838 356.224 191.12 356.74Z" fill="#DB1C18"></path><path d="M122.91 397.38C122.433 397.382 121.964 397.258 121.55 397.02C121.029 396.671 120.609 396.19 120.333 395.626C120.057 395.063 119.936 394.436 119.98 393.81V317.39C119.992 316.245 120.281 315.121 120.822 314.112C121.364 313.104 122.142 312.242 123.09 311.6L190.36 272.76C190.805 272.478 191.317 272.319 191.844 272.298C192.371 272.277 192.893 272.395 193.36 272.64C193.884 272.986 194.307 273.466 194.583 274.031C194.859 274.595 194.979 275.224 194.93 275.85V352.26C194.92 353.404 194.633 354.528 194.093 355.537C193.553 356.545 192.777 357.408 191.83 358.05L124.6 396.89C124.09 397.2 123.507 397.369 122.91 397.38ZM191.91 275.38L124.61 314.2C124.131 314.578 123.741 315.058 123.468 315.604C123.195 316.15 123.045 316.75 123.03 317.36V393.78C123.016 393.926 123.016 394.074 123.03 394.22L190.33 355.39C190.812 355.014 191.204 354.535 191.477 353.988C191.75 353.442 191.898 352.841 191.91 352.23V275.85C191.921 275.703 191.918 275.556 191.9 275.41L191.91 275.38Z" fill="#150035"></path><path d="M515 198.94H512.37V192.87H515V198.94ZM515 186.79H512.37V180.72H515V186.79Z" fill="white"></path><path d="M526.65 152.04H524V145.96H526.63L526.65 152.04ZM526.65 139.89H524V133.81H526.63L526.65 139.89ZM526.65 127.74H524V121.74H526.63L526.65 127.74Z" fill="white"></path><path d="M540.5 138.21H534.5V135.57H540.5V138.21ZM528.39 138.21H522.31V135.57H528.39V138.21ZM516.24 138.21H510.16V135.57H516.24V138.21Z" fill="white"></path><path d="M604.09 349.04H598V346.4H604.08L604.09 349.04ZM591.94 349.04H585.86V346.4H591.94V349.04Z" fill="white"></path><path d="M569.08 312.49L496.2 354.57C492.98 356.42 490.37 354.45 490.37 350.16V254.04C490.37 249.75 492.98 244.77 496.2 242.91L569.08 200.84C572.29 198.98 574.9 200.95 574.9 205.24V301.36C574.9 305.65 572.29 310.63 569.08 312.49Z" fill="white"></path><path d="M493.88 356.79C493.09 356.794 492.313 356.587 491.63 356.19C489.86 355.19 488.85 352.98 488.85 350.19V254.04C488.85 249.19 491.74 243.72 495.44 241.59L568.32 199.51C569.097 198.981 570.004 198.673 570.942 198.619C571.881 198.564 572.817 198.765 573.65 199.2C575.41 200.2 576.42 202.42 576.42 205.2V301.32C576.42 306.17 573.53 311.63 569.83 313.76L497 355.88C496.059 356.454 494.982 356.768 493.88 356.79ZM571.39 201.66C570.838 201.693 570.302 201.861 569.83 202.15L497 244.23C494.25 245.81 491.93 250.31 491.93 254.05V350.16C491.93 351.83 492.4 353.11 493.18 353.56C493.56 353.7 493.968 353.745 494.368 353.691C494.769 353.637 495.151 353.485 495.48 353.25L568.36 311.17C571.1 309.59 573.42 305.09 573.42 301.36V205.24C573.42 203.57 572.96 202.3 572.17 201.84C571.932 201.709 571.662 201.647 571.39 201.66Z" fill="#150035"></path><path d="M566.27 292.35L499 331.19C497.71 331.94 496.66 331.19 496.66 329.42V253.04C496.673 252.162 496.892 251.3 497.298 250.522C497.704 249.744 498.287 249.072 499 248.56L566.27 209.72C567.57 208.97 568.62 209.72 568.62 211.49V287.9C568.603 288.774 568.381 289.631 567.973 290.404C567.565 291.177 566.982 291.843 566.27 292.35Z" fill="#DB1C18"></path><path d="M498.06 333.04C497.586 333.041 497.12 332.917 496.71 332.68C496.186 332.334 495.763 331.853 495.487 331.289C495.211 330.725 495.091 330.096 495.14 329.47V253.04C495.15 251.895 495.437 250.769 495.977 249.759C496.517 248.749 497.293 247.885 498.24 247.24L565.51 208.41C565.954 208.127 566.466 207.965 566.993 207.943C567.519 207.92 568.043 208.036 568.51 208.28C569.035 208.627 569.458 209.107 569.735 209.671C570.013 210.235 570.135 210.863 570.09 211.49V287.9C570.078 289.046 569.789 290.172 569.248 291.182C568.706 292.192 567.928 293.056 566.98 293.7L499.71 332.54C499.211 332.844 498.644 333.017 498.06 333.04ZM567.06 211.04L499.77 249.87C499.288 250.246 498.896 250.725 498.623 251.272C498.35 251.818 498.202 252.419 498.19 253.03V329.44C498.175 329.586 498.175 329.734 498.19 329.88L565.51 291.04C565.992 290.661 566.385 290.181 566.66 289.633C566.935 289.085 567.085 288.483 567.1 287.87V211.46C567.102 211.318 567.085 211.177 567.05 211.04H567.06Z" fill="#150035"></path><path d="M553.41 235.54L512 259.47C510.5 260.33 509.29 259.41 509.29 257.42C509.305 256.406 509.558 255.41 510.029 254.512C510.5 253.614 511.175 252.839 512 252.25L553.43 228.33C554.93 227.46 556.14 228.38 556.14 230.33C556.131 231.353 555.878 232.358 555.403 233.264C554.929 234.17 554.246 234.95 553.41 235.54Z" fill="white"></path><path d="M510.9 261.31C510.39 261.312 509.89 261.178 509.45 260.92C508.881 260.54 508.424 260.016 508.125 259.401C507.827 258.785 507.697 258.102 507.75 257.42C507.76 256.138 508.081 254.878 508.685 253.748C509.29 252.617 510.16 251.65 511.22 250.93L552.65 227.04C553.135 226.724 553.697 226.544 554.276 226.519C554.855 226.495 555.429 226.626 555.94 226.9C556.509 227.28 556.966 227.804 557.265 228.419C557.563 229.035 557.693 229.718 557.64 230.4C557.63 231.682 557.309 232.942 556.705 234.073C556.1 235.203 555.23 236.17 554.17 236.89L512.74 260.81C512.181 261.134 511.546 261.306 510.9 261.31ZM554.42 229.5C554.42 229.5 554.32 229.56 554.17 229.64L512.74 253.56C512.15 254.019 511.669 254.604 511.332 255.271C510.995 255.939 510.81 256.673 510.79 257.42C510.764 257.721 510.827 258.024 510.97 258.29C510.97 258.29 511.07 258.24 511.22 258.15L552.65 234.23C553.252 233.779 553.745 233.197 554.091 232.529C554.438 231.86 554.629 231.122 554.65 230.37C554.66 230.064 554.58 229.761 554.42 229.5Z" fill="#150035"></path><path d="M553.41 253.17L512 277.09C510.5 277.95 509.29 277.04 509.29 275.04C509.306 274.026 509.559 273.03 510.03 272.133C510.501 271.235 511.175 270.46 512 269.87L553.43 245.95C554.93 245.09 556.14 245.95 556.14 247.95C556.131 248.974 555.878 249.981 555.404 250.889C554.929 251.796 554.246 252.578 553.41 253.17Z" fill="white"></path><path d="M510.9 278.93C510.391 278.936 509.89 278.805 509.45 278.55C508.88 278.169 508.423 277.642 508.124 277.026C507.825 276.409 507.696 275.723 507.75 275.04C507.762 273.76 508.083 272.502 508.688 271.373C509.292 270.245 510.161 269.279 511.22 268.56L552.65 244.64C553.134 244.322 553.696 244.141 554.274 244.114C554.853 244.088 555.429 244.218 555.94 244.49C556.509 244.872 556.966 245.399 557.264 246.015C557.563 246.632 557.693 247.317 557.64 248C557.631 249.281 557.31 250.54 556.706 251.669C556.101 252.798 555.231 253.763 554.17 254.48L512.74 278.41C512.183 278.742 511.548 278.921 510.9 278.93ZM554.42 247.13C554.42 247.13 554.32 247.18 554.17 247.27L512.74 271.19C512.148 271.645 511.666 272.228 511.328 272.894C510.991 273.56 510.807 274.293 510.79 275.04C510.763 275.341 510.825 275.644 510.97 275.91C510.97 275.91 511.07 275.86 511.22 275.78L552.65 251.85C553.251 251.4 553.743 250.82 554.089 250.153C554.436 249.487 554.627 248.751 554.65 248C554.662 247.693 554.582 247.39 554.42 247.13Z" fill="#150035"></path><path d="M553.41 270.79L512 294.72C510.5 295.58 509.29 294.66 509.29 292.67C509.305 291.656 509.558 290.66 510.029 289.762C510.5 288.864 511.175 288.089 512 287.5L553.43 263.58C554.93 262.71 556.14 263.58 556.14 265.58C556.131 266.603 555.878 267.608 555.403 268.514C554.929 269.42 554.246 270.2 553.41 270.79Z" fill="white"></path><path d="M510.9 296.56C510.39 296.562 509.89 296.428 509.45 296.17C508.881 295.791 508.423 295.267 508.124 294.651C507.825 294.036 507.696 293.352 507.75 292.67C507.76 291.388 508.081 290.128 508.685 288.997C509.29 287.867 510.16 286.9 511.22 286.18L552.65 262.26C553.136 261.944 553.697 261.764 554.276 261.739C554.855 261.715 555.43 261.846 555.94 262.12C556.509 262.5 556.966 263.024 557.265 263.639C557.564 264.255 557.693 264.938 557.64 265.62C557.63 266.902 557.309 268.162 556.705 269.293C556.1 270.423 555.23 271.39 554.17 272.11L512.74 296.04C512.182 296.371 511.548 296.55 510.9 296.56ZM554.42 264.75C554.42 264.75 554.32 264.81 554.17 264.89L512.74 288.81C512.15 289.269 511.669 289.854 511.332 290.521C510.995 291.189 510.81 291.922 510.79 292.67C510.763 292.971 510.825 293.274 510.97 293.54C510.97 293.54 511.07 293.49 511.22 293.4L552.65 269.48C553.253 269.029 553.745 268.447 554.092 267.779C554.438 267.11 554.629 266.372 554.65 265.62C554.659 265.314 554.579 265.012 554.42 264.75Z" fill="#150035"></path><path d="M553.41 288.42L512 312.34C510.5 313.2 509.29 312.29 509.29 310.34C509.305 309.325 509.558 308.327 510.029 307.428C510.499 306.528 511.175 305.751 512 305.16L553.43 281.24C554.93 280.38 556.14 281.3 556.14 283.24C556.124 284.257 555.869 285.256 555.395 286.157C554.92 287.057 554.24 287.832 553.41 288.42Z" fill="white"></path><path d="M510.9 314.18C510.391 314.186 509.89 314.055 509.45 313.8C508.881 313.42 508.424 312.896 508.125 312.281C507.827 311.665 507.697 310.982 507.75 310.3C507.76 309.018 508.081 307.758 508.685 306.627C509.29 305.497 510.16 304.53 511.22 303.81L552.65 279.89C553.135 279.574 553.696 279.394 554.275 279.367C554.853 279.341 555.428 279.47 555.94 279.74C556.509 280.122 556.966 280.648 557.264 281.265C557.563 281.882 557.693 282.567 557.64 283.25C557.629 284.532 557.308 285.792 556.703 286.922C556.099 288.052 555.23 289.019 554.17 289.74L512.74 313.66C512.183 313.992 511.548 314.171 510.9 314.18ZM554.42 282.38C554.42 282.38 554.32 282.43 554.17 282.52L512.74 306.44C512.147 306.896 511.664 307.48 511.326 308.148C510.989 308.816 510.805 309.552 510.79 310.3C510.766 310.601 510.829 310.903 510.97 311.17C510.97 311.17 511.07 311.11 511.22 311.03L552.65 287.11C553.249 286.655 553.739 286.073 554.085 285.405C554.431 284.738 554.624 284.001 554.65 283.25C554.662 282.943 554.582 282.64 554.42 282.38Z" fill="#150035"></path><path d="M325 57.04V50.44C325 43.73 321.83 40.11 318 42.33L304.09 50.21C300.34 52.39 299.59 58.45 299.59 65.08V71.6L303.91 69.04V63.76C303.91 58.76 305.77 55.16 308.38 53.64L316.23 49.09C320.11 47.51 320.71 49.09 320.71 54.09V59.44L325 57.04Z" fill="white" stroke="#231F20" stroke-width="3.63" stroke-miterlimit="10"></path><path d="M324.43 59.34L301.43 72.5C297.99 74.5 295.07 78.62 295.07 81.69V103.27C295.07 106.34 297.99 107.13 301.43 105.21L324.43 92.38C327.94 90.38 330.43 86.56 330.43 83.44V61.52C330.45 58.39 327.94 57.32 324.43 59.34ZM315.85 80.6V90.74L311.3 93.29V82.98C310.25 82.81 309.71 81.85 309.71 80.41C309.817 79.0852 310.235 77.8044 310.93 76.6715C311.625 75.5386 312.578 74.5856 313.71 73.89C315.9 72.64 317.71 73.49 317.71 75.89C317.527 77.5993 316.884 79.227 315.85 80.6Z" fill="white" stroke="#231F20" stroke-width="3.63" stroke-miterlimit="10"></path><path d="M181.38 337.53C188.07 326.67 185.57 313.72 175.75 308.53C165.93 303.34 152.14 307.81 145.21 318.8C138.28 329.79 140.85 343.04 151 348.21C161.15 353.38 174.64 348.46 181.38 337.53Z" fill="white" stroke="#231F20" stroke-width="3.39" stroke-miterlimit="10"></path><path d="M177.45 335.49C182.69 327.01 180.73 316.9 173.05 312.84C165.37 308.78 154.65 312.32 149.26 320.84C143.87 329.36 145.88 339.73 153.76 343.74C161.64 347.75 172.18 344.04 177.45 335.49Z" fill="white" stroke="#231F20" stroke-width="3.39" stroke-miterlimit="10"></path><path d="M140.97 357.86L145.98 360.36L152.29 350.22L147.31 347.71L140.97 357.86Z" fill="white" stroke="#231F20" stroke-width="3.39" stroke-miterlimit="10"></path><path d="M130.88 371.46C129.97 372.92 130.19 374.65 131.42 375.25L134.66 376.84C135.89 377.43 137.66 376.67 138.55 375.22L146.55 362.34C147.44 360.9 147.19 359.25 145.98 358.64L142.77 357.04C141.55 356.43 139.84 357.11 138.94 358.55L130.88 371.46Z" fill="white" stroke="#231F20" stroke-width="3.39" stroke-miterlimit="10"></path><path d="M172.62 331.78L163.55 338.81L154.06 335.35L153.72 324.8L162.9 318.59L172.29 321.32L172.62 331.78Z" fill="white" stroke="#231F20" stroke-width="3.39" stroke-miterlimit="10"></path><path d="M153.81 324.78L163.23 327.43L172.38 321.3" fill="white"></path><path d="M153.81 324.78L163.23 327.43L172.38 321.3" stroke="#231F20" stroke-width="3.39" stroke-miterlimit="10"></path></g><defs><clipPath id="clip0"><rect width="604.09" height="815.46" fill="white"></rect></clipPath></defs></svg>