<svg xmlns="http://www.w3.org/2000/svg" width="75" height="75" viewBox="0 0 75 75" fill="none"><g clip-path="url(#clip0)"><path d="M73.6939 68.615H63.6681V5.11521C63.6681 4.45279 63.1714 3.90078 62.5276 3.82718L28.6792 -0.000104701C27.9801 -0.0737063 27.3363 0.423104 27.2627 1.14072C27.2627 1.19592 27.2627 1.23272 27.2627 1.28792V3.82718H12.6012C11.8837 3.82718 11.3135 4.39759 11.3135 5.11521V68.615H1.28771C0.570272 68.615 0 69.1854 0 69.903C0 70.6206 0.570272 71.191 1.28771 71.191H27.2627V73.7303C27.2627 74.4479 27.833 75.0183 28.5504 75.0183C28.6056 75.0183 28.6424 75.0183 28.6976 75.0183L62.4724 71.2094H73.7123C74.4297 71.2094 75 70.639 75 69.9214C75 69.2038 74.4113 68.615 73.6939 68.615ZM13.8889 6.40323H27.2627V9.7153H18.4879C17.7704 9.7153 17.2001 10.2857 17.2001 11.0033V68.615H13.8889V6.40323ZM19.7756 68.615V12.2914H27.2627V68.615H19.7756ZM29.8381 2.72315L61.1111 6.25603V68.7438L29.8381 72.2766V2.72315Z" fill="white"></path><path d="M35.3753 33.6727C33.2597 33.6727 31.5489 35.384 31.5489 37.5C31.5489 39.6161 33.2597 41.3273 35.3753 41.3273C37.4908 41.3273 39.2016 39.6161 39.2016 37.5C39.2016 35.384 37.4908 33.6727 35.3753 33.6727ZM35.3753 38.7696C34.6762 38.7696 34.1243 38.1992 34.1243 37.5184C34.1243 36.8192 34.6946 36.2672 35.3753 36.2672C36.0559 36.2672 36.6262 36.8376 36.6262 37.5184C36.6446 38.1992 36.0743 38.7696 35.3753 38.7696Z" fill="white"></path></g><defs><clipPath id="clip0"><rect width="75" height="75" fill="white"></rect></clipPath></defs></svg>