<svg xmlns="http://www.w3.org/2000/svg" width="75" height="75" viewBox="0 0 75 75" fill="none"><path d="M10.7185 75C8.85121 73.8135 6.99863 72.6123 5.13135 71.4258C3.69045 70.5029 2.23486 69.5947 0.779259 68.7158C0.249951 68.3789 0 67.9688 0 67.3242C0.014703 63.999 0.014703 60.6885 0 57.3633C0 56.7334 0.220545 56.3086 0.749853 55.9717C3.96981 53.9795 7.17506 51.9727 10.3803 49.9658C10.9243 49.6289 11.4095 49.6289 11.9535 49.9658C15.1735 51.9873 18.4082 54.0088 21.6428 56.0156C22.128 56.3086 22.3192 56.7188 22.3192 57.29C22.3045 60.6152 22.3045 63.9258 22.3192 67.251C22.3192 67.9395 22.0545 68.3789 21.4811 68.7451C18.3199 70.6934 15.1882 72.6709 12.0418 74.6484C11.88 74.751 11.7477 74.8682 11.586 74.9854C11.3066 75 11.0125 75 10.7185 75ZM3.20525 57.0703C5.74887 58.6523 8.20427 60.1611 10.6303 61.7139C11.042 61.9775 11.3213 61.9775 11.733 61.7139C13.9826 60.2783 16.2468 58.8867 18.4964 57.4658C18.6875 57.3486 18.8787 57.2021 19.1139 57.041C16.5262 55.4297 14.0267 53.8623 11.5124 52.3096C11.3507 52.207 11.0273 52.1924 10.8655 52.2949C8.3366 53.8623 5.80768 55.4443 3.20525 57.0703ZM2.22015 59.0479C2.22015 61.6846 2.20545 64.1748 2.23486 66.665C2.23486 66.8701 2.4554 67.1338 2.64654 67.251C4.9255 68.7012 7.23388 70.1367 9.52754 71.5723C9.67457 71.6602 9.85101 71.7187 10.0716 71.8213C10.0716 69.7119 9.96863 67.7051 10.1157 65.7275C10.2186 64.3652 9.71868 63.6328 8.57185 62.9883C6.43991 61.7871 4.4109 60.4248 2.22015 59.0479ZM12.2917 71.8066C12.4828 71.7334 12.5711 71.7187 12.6593 71.6748C15.0412 70.1953 17.4231 68.7158 19.7902 67.1924C19.9814 67.0752 20.1137 66.7236 20.1284 66.4893C20.1578 65.2002 20.1431 63.9111 20.1431 62.6074C20.1431 61.4795 20.1431 60.3369 20.1431 59.165C19.9961 59.1943 19.9079 59.1943 19.8638 59.2383C17.4672 60.7324 15.0559 62.2266 12.674 63.75C12.4681 63.8818 12.3358 64.2627 12.3211 64.5264C12.2917 66.2842 12.3064 68.042 12.3064 69.7852C12.2917 70.4443 12.2917 71.0889 12.2917 71.8066Z" fill="white"></path><path d="M75 18.6035C71.6183 20.7275 68.2219 22.8516 64.8549 24.9902C64.2374 25.3857 63.7228 25.3711 63.1053 24.9902C59.9735 22.998 56.8271 21.0352 53.666 19.0869C53.0484 18.7061 52.8132 18.252 52.8132 17.5342C52.8426 14.3408 52.8426 11.1475 52.7985 7.9541C52.7838 7.11914 53.0631 6.60645 53.7836 6.16699C56.783 4.33594 59.753 2.46094 62.7377 0.600586C63.0171 0.424805 63.2817 0.219727 63.5464 0.0146484C63.7963 0.0146484 64.0316 0.0146484 64.2815 0.0146484C64.6932 0.27832 65.1049 0.527344 65.5166 0.791016C68.6777 2.7832 71.8242 4.77539 74.9853 6.75293C75 10.6934 75 14.6484 75 18.6035ZM71.9565 7.38281C69.3393 5.75684 66.8251 4.1748 64.2962 2.62207C64.1198 2.51953 63.7375 2.57812 63.5317 2.70996C62.5466 3.28125 61.5762 3.91113 60.6058 4.51172C59.0914 5.44922 57.5917 6.38672 56.0625 7.33887C56.1508 7.42676 56.1949 7.5 56.239 7.5293C58.6944 9.06738 61.1645 10.6055 63.6346 12.1143C63.811 12.2168 64.1639 12.2168 64.3403 12.0996C66.8545 10.5762 69.3541 9.00879 71.9565 7.38281ZM65.0608 22.1338C65.2519 22.0605 65.3548 22.0459 65.4284 22.002C67.8102 20.5225 70.1921 19.043 72.5593 17.5342C72.7652 17.4023 72.9122 17.0215 72.9269 16.7578C72.9563 14.6338 72.9416 12.5244 72.9416 10.4004C72.9416 10.0928 72.9416 9.79981 72.9416 9.49219C72.7799 9.52149 72.7357 9.50684 72.6916 9.53613C70.2656 11.0449 67.8396 12.5391 65.4431 14.0771C65.2372 14.209 65.0902 14.5898 65.0902 14.8535C65.0608 16.6113 65.0755 18.3691 65.0755 20.1123C65.0608 20.7715 65.0608 21.416 65.0608 22.1338ZM55.0186 9.375C55.0186 12.0117 55.0039 14.502 55.0333 16.9775C55.0333 17.1973 55.2833 17.4756 55.4891 17.6074C57.4152 18.8379 59.3707 20.0537 61.3115 21.2695C61.782 21.5625 62.2525 21.8555 62.8112 22.1924C62.8259 21.8408 62.8553 21.6064 62.8553 21.3721C62.8553 19.5264 62.7671 17.666 62.8847 15.8203C62.9583 14.6484 62.576 14.0039 61.5468 13.418C59.3854 12.1875 57.2976 10.7812 55.0186 9.375Z" fill="white"></path><path d="M11.6007 0C13.4532 1.17188 15.2911 2.3584 17.1437 3.53027C18.5846 4.43848 20.0402 5.34668 21.4958 6.24023C22.0692 6.5918 22.3339 7.03125 22.3339 7.73438C22.3044 11.001 22.3044 14.2822 22.3339 17.5488C22.3339 18.2666 22.0692 18.7207 21.4664 19.1016C18.3493 21.0205 15.247 22.9688 12.1594 24.9316C11.4683 25.3711 10.9096 25.3857 10.2186 24.9463C7.13095 22.9688 4.02862 21.0352 0.896883 19.1162C0.264654 18.7207 0 18.252 0 17.5049C0.029406 14.2822 0.029406 11.0596 0 7.83691C0 7.08984 0.249951 6.60645 0.896883 6.22559C2.4407 5.30273 3.96981 4.32129 5.49892 3.36914C6.26348 2.90039 6.83689 2.98828 7.20447 3.58887C7.58675 4.18945 7.41031 4.76074 6.66046 5.22949C5.52833 5.94727 4.38149 6.65039 3.19055 7.39746C5.80768 9.02344 8.3513 10.6201 10.9096 12.1875C11.042 12.2607 11.3066 12.2754 11.4242 12.2021C13.9826 10.6348 16.5262 9.03809 19.1433 7.39746C17.2907 6.24023 15.5117 5.12695 13.7326 4.01367C12.8063 3.42773 11.8653 2.85645 10.939 2.27051C9.7922 1.55273 9.7775 0.849609 10.8655 0.0146484C11.1155 0 11.3654 0 11.6007 0ZM9.99804 22.1777C10.0569 21.9873 10.0863 21.9287 10.0863 21.8555C10.0863 19.4678 10.101 17.0654 10.0716 14.6777C10.0716 14.4434 9.85101 14.1357 9.64517 14.0039C7.3368 12.5537 5.01372 11.1035 2.69065 9.66797C2.55832 9.59473 2.41129 9.55078 2.22015 9.47754C2.22015 11.5869 2.30837 13.6084 2.19075 15.6299C2.11723 16.9189 2.52892 17.6367 3.64634 18.2666C5.79298 19.4531 7.8367 20.8301 9.99804 22.1777ZM12.2917 22.1631C12.5123 22.0605 12.6152 22.0312 12.7181 21.9727C15.0559 20.5078 17.4084 19.0576 19.7314 17.5781C19.9373 17.4463 20.1137 17.0801 20.1137 16.8311C20.1578 15.7178 20.1284 14.5898 20.1284 13.4619C20.1284 12.1582 20.1284 10.8545 20.1284 9.50684C19.9814 9.55078 19.9079 9.55078 19.849 9.58008C17.4378 11.0596 15.0265 12.5391 12.6446 14.0771C12.4387 14.209 12.3064 14.5898 12.2917 14.8535C12.2623 16.4648 12.277 18.0762 12.277 19.6875C12.2917 20.4785 12.2917 21.2695 12.2917 22.1631Z" fill="white"></path><path d="M63.5464 75C61.238 73.5352 58.9443 72.085 56.6359 70.6201C55.6067 69.9609 54.5775 69.3164 53.5336 68.6865C53.019 68.3789 52.7985 67.9688 52.7985 67.3682C52.8132 64.0283 52.8132 60.6885 52.7985 57.3486C52.7985 56.7188 53.0484 56.3086 53.5777 55.9717C56.7683 53.9941 59.9588 52.002 63.1347 50.0098C63.664 49.6729 64.1492 49.6143 64.6932 49.9512C68.119 52.1045 71.5448 54.2578 74.9706 56.3965C74.9706 60.3516 74.9706 64.3066 74.9706 68.2617C73.3091 69.3164 71.6477 70.3857 69.9716 71.4404C69.3099 71.8506 68.6336 71.7188 68.3101 71.1475C67.9867 70.5762 68.1778 69.9756 68.8541 69.5508C70.001 68.8184 71.1625 68.0713 72.3388 67.3682C72.7651 67.1191 72.9416 66.8408 72.9269 66.3281C72.8975 64.1602 72.9122 61.9775 72.9122 59.8096C72.9122 59.6045 72.8828 59.3994 72.8681 59.1211C72.6328 59.2529 72.4564 59.3408 72.2946 59.4434C70.0745 60.8203 67.869 62.2266 65.6342 63.5742C65.1784 63.8525 65.0314 64.1748 65.0314 64.6875C65.0608 67.6172 65.0314 70.5469 65.0461 73.4766C65.0461 74.1504 64.8696 74.6631 64.2521 74.9853C64.0463 75 63.7963 75 63.5464 75ZM71.9565 57.0557C69.354 55.4297 66.8545 53.8623 64.3403 52.3242C64.1492 52.207 63.7375 52.2656 63.5169 52.3975C62.0908 53.2471 60.694 54.1406 59.2825 55.0195C58.2092 55.6787 57.1505 56.3525 56.0037 57.0557C58.6208 58.6963 61.1645 60.293 63.7081 61.8604C63.8551 61.9482 64.1492 61.919 64.2962 61.8311C66.8251 60.2637 69.3393 58.6963 71.9565 57.0557ZM62.8553 71.8945C62.8553 69.2285 62.87 66.7383 62.8406 64.2627C62.8406 64.0576 62.6054 63.8086 62.3995 63.6768C60.1059 62.2266 57.8122 60.8057 55.5185 59.3701C55.3862 59.2969 55.2392 59.2529 55.0186 59.1797C55.0186 61.7285 55.0039 64.1895 55.048 66.6504C55.048 66.8848 55.3274 67.1924 55.5479 67.3389C57.5769 68.6426 59.6354 69.917 61.6791 71.1914C62.0319 71.3818 62.3701 71.6016 62.8553 71.8945Z" fill="white"></path><path d="M26.4213 37.456C26.4213 35.8154 26.436 34.1894 26.4066 32.5488C26.3919 31.9189 26.6124 31.4941 27.1417 31.1572C30.3617 29.165 33.5669 27.1582 36.7722 25.1513C37.3162 24.8144 37.8014 24.7998 38.3454 25.1513C41.5507 27.1582 44.7559 29.165 47.9759 31.1572C48.5052 31.4941 48.7257 31.9189 48.7257 32.5488C48.711 35.8154 48.6963 39.0966 48.7257 42.3632C48.7257 43.1103 48.4464 43.5791 47.8142 43.9746C44.7118 45.8935 41.6389 47.8125 38.566 49.7754C37.8602 50.2295 37.2721 50.2295 36.5517 49.7754C33.4787 47.8125 30.4058 45.8935 27.3035 43.9892C26.6418 43.5791 26.3772 43.0957 26.3919 42.3193C26.4507 40.6787 26.4213 39.0673 26.4213 37.456ZM29.5971 32.2265C32.2584 33.8818 34.802 35.4785 37.3456 37.0312C37.4927 37.1191 37.8455 37.0166 38.0514 36.8847C40.4038 35.4345 42.7269 33.9697 45.0647 32.5195C45.197 32.4316 45.3146 32.3291 45.5058 32.1972C42.9181 30.5859 40.4038 29.0039 37.8749 27.4365C37.7279 27.3486 37.4338 27.334 37.3015 27.4218C34.7726 28.9892 32.2584 30.5713 29.5971 32.2265ZM38.6689 47.08C41.286 45.4394 43.7708 43.8867 46.2409 42.3193C46.4027 42.2168 46.5056 41.9238 46.5056 41.7187C46.535 40.8691 46.5203 40.0048 46.5203 39.1552C46.5203 37.5586 46.5203 35.9619 46.5203 34.3506C46.4027 34.3506 46.3439 34.3359 46.3145 34.3652C43.8738 35.8886 41.4184 37.3974 38.9777 38.9355C38.8306 39.0381 38.6836 39.2724 38.6689 39.4482C38.6689 41.9384 38.6689 44.414 38.6689 47.08ZM36.4634 47.0654C36.4634 44.3994 36.4781 41.8945 36.4487 39.3896C36.4487 39.1992 36.1841 38.9502 35.9782 38.8183C34.2286 37.705 32.4642 36.6064 30.7146 35.5078C30.0529 35.0976 29.406 34.7021 28.6561 34.248C28.6414 34.5849 28.6267 34.8193 28.6267 35.0537C28.6267 36.958 28.7003 38.8623 28.5973 40.7519C28.5385 41.8066 28.8767 42.4072 29.803 42.9345C32.0084 44.209 34.1404 45.6152 36.4634 47.0654Z" fill="white"></path><path d="M37.5221 13.1836C34.3168 13.1836 31.1115 13.1836 27.9063 13.1836C26.9947 13.1836 26.5389 12.6709 26.6859 11.8652C26.8183 11.1768 27.2888 10.9863 27.921 10.9863C30.7587 10.9863 33.5964 10.9863 36.434 10.9863C40.0069 10.9863 43.5797 10.9863 47.1525 10.9863C47.8289 10.9863 48.2994 11.2207 48.4317 11.9092C48.564 12.6416 48.0641 13.1836 47.2113 13.1836C44.5501 13.1982 41.8741 13.1836 39.2129 13.1836C38.6395 13.1836 38.0808 13.1836 37.5221 13.1836Z" fill="white"></path><path d="M37.5956 64.0137C34.3903 64.0137 31.1851 64.0137 27.9798 64.0137C27.0829 64.0137 26.5683 63.4717 26.7301 62.71C26.8771 62.0068 27.3623 61.8164 28.0386 61.8164C32.3907 61.8311 36.7428 61.8164 41.0949 61.8164C43.1533 61.8164 45.197 61.8164 47.2554 61.8164C48.167 61.8164 48.6522 62.417 48.4464 63.2227C48.2846 63.8672 47.7994 64.0137 47.2113 64.0137C44.0061 64.0137 40.8008 64.0137 37.5956 64.0137Z" fill="white"></path><path d="M62.8112 37.5C62.8112 35.4053 62.8112 33.2959 62.8112 31.2011C62.8112 30.3222 63.1935 29.8681 63.9139 29.8828C64.6344 29.8828 65.0167 30.3369 65.0167 31.2158C65.0167 35.3906 65.0167 39.5654 65.0167 43.7402C65.0167 44.6045 64.6197 45.1025 63.9433 45.1172C63.2376 45.1318 62.8112 44.6191 62.8112 43.7256C62.8112 41.6455 62.8112 39.5801 62.8112 37.5Z" fill="white"></path><path d="M12.3358 37.5C12.3358 39.6533 12.3505 41.792 12.3358 43.9453C12.3211 44.9268 11.4242 45.5274 10.7185 44.9854C10.395 44.7364 10.1745 44.1797 10.1598 43.7549C10.1157 39.7266 10.1304 35.6983 10.1304 31.6699C10.1304 31.5674 10.1304 31.4795 10.1304 31.377C10.1304 30.3809 10.5126 29.8975 11.2478 29.9121C11.9682 29.9268 12.3211 30.3955 12.3211 31.3477C12.3358 33.3985 12.3358 35.4492 12.3358 37.5Z" fill="white"></path><path d="M21.2311 22.5732C21.6428 22.749 21.8928 22.8369 22.1133 22.9687C23.6718 23.9795 25.2156 24.9902 26.7448 26.0156C27.4505 26.4844 27.5975 27.0996 27.2005 27.6855C26.833 28.2275 26.2154 28.2861 25.5244 27.8467C23.9512 26.8213 22.3927 25.7812 20.8341 24.7412C20.3931 24.4482 20.099 24.0234 20.3784 23.5107C20.5695 23.1445 20.9518 22.8662 21.2311 22.5732Z" fill="white"></path><path d="M27.5975 48.7353C27.3182 49.1015 27.1417 49.4385 26.8771 49.6289C25.2892 50.7129 23.6718 51.7676 22.0692 52.8222C21.4811 53.2031 20.8636 53.0859 20.5254 52.5879C20.1431 52.0312 20.2607 51.416 20.8636 51.0058C22.4662 49.9365 24.0541 48.8525 25.7008 47.8418C25.9949 47.666 26.5242 47.6221 26.833 47.7685C27.127 47.915 27.3035 48.3545 27.5975 48.7353Z" fill="white"></path><path d="M48.6669 47.4609C49.0933 47.6514 49.358 47.7393 49.6079 47.9004C51.137 48.8965 52.6661 49.9072 54.1805 50.918C54.901 51.4014 55.048 51.9873 54.6657 52.5879C54.2982 53.1445 53.6806 53.2178 53.0043 52.7637C51.4311 51.7383 49.8726 50.6982 48.3141 49.6582C47.873 49.3652 47.5642 48.9404 47.8289 48.4277C47.9906 48.0615 48.3729 47.7832 48.6669 47.4609Z" fill="white"></path><path d="M48.6669 28.2275C48.417 28.0078 48.0494 27.7881 47.8436 27.4512C47.5642 27.0117 47.7112 26.499 48.1376 26.2207C49.8285 25.0635 51.534 23.9355 53.269 22.8369C53.813 22.4853 54.3129 22.6904 54.6658 23.2031C55.0186 23.7158 55.0039 24.2725 54.4746 24.624C52.7838 25.7812 51.0635 26.8945 49.358 28.0078C49.1962 28.0957 49.0198 28.1103 48.6669 28.2275Z" fill="white"></path></svg>