<svg xmlns="http://www.w3.org/2000/svg" width="76" height="76" viewBox="0 0 76 76" fill="none"><path d="M62.4591 68.3528C63.2728 68.3528 63.9325 67.6931 63.9325 66.8794C63.9325 66.0656 63.2728 65.4059 62.4591 65.4059C61.6453 65.4059 60.9856 66.0656 60.9856 66.8794C60.9856 67.6931 61.6453 68.3528 62.4591 68.3528Z" fill="white"></path><path d="M75.72 33.5797C75.72 22.6795 71.8566 16.025 64.8789 9.34521C62.2635 6.84287 59.793 4.47933 58.6843 1.27195C58.479 0.678299 57.92 0.280029 57.2917 0.280029C55.8332 0.280029 37.3277 0.280029 33.5797 0.280029C22.6795 0.280029 16.0252 4.14353 9.34517 11.1211C6.84284 13.7366 4.47915 16.2072 1.27192 17.3158C0.678269 17.521 0.279999 18.0802 0.279999 18.7083V42.4203C0.279999 53.3205 4.14335 59.975 11.1211 66.6549C13.7365 69.1572 16.207 71.5207 17.3157 74.7281C17.521 75.3218 18.0802 75.72 18.7083 75.72H42.4203C48.32 75.72 53.3523 74.5217 57.8048 72.0566C58.5167 71.6623 58.7743 70.7657 58.3801 70.0538C57.986 69.3418 57.0893 69.0841 56.3774 69.4784C52.3731 71.6955 47.8076 72.7732 42.4203 72.7732H35.2232C35.7601 70.4784 37.5235 68.5826 39.8738 67.9239C41.5055 67.4669 44.3495 67.0499 47.3606 66.6084L47.3775 66.6058C53.2551 65.7422 56.2923 62.9178 60.2717 58.7599C60.8343 58.1721 60.814 57.2394 60.2261 56.6766C59.638 56.1139 58.7055 56.1341 58.1428 56.7224C56.2525 58.6974 54.3095 60.7406 51.9377 62.0676C50.253 62.9472 48.5769 62.3137 47.8336 60.9323C47.0609 59.5016 47.5941 57.716 49.0319 56.9433C50.5745 56.1124 51.962 54.6602 53.8817 52.6507C59.205 47.0855 65.9294 43.8938 72.3311 43.8938H72.7731V56.2845C70.0898 57.4437 67.9996 59.3123 66.1334 61.1852C65.559 61.7616 65.5606 62.6945 66.1371 63.269C66.7135 63.8432 67.6464 63.8419 68.2208 63.2654C70.0613 61.4184 72.1233 59.5849 74.7281 58.6844C75.3217 58.479 75.72 57.92 75.72 57.2919C75.72 55.8332 75.72 37.3277 75.72 33.5797ZM3.22687 19.7156C6.59147 18.2622 9.07023 15.6713 11.4743 13.1586C16.0742 8.35344 21.9554 3.22543 33.5797 3.22543L40.7768 3.2269C40.2399 5.52164 38.4765 7.41751 36.1262 8.07613C34.4945 8.53319 31.6505 8.95018 28.6394 9.39162L28.6225 9.39427C26.4645 9.71121 24.5787 10.3124 22.8578 11.2318C20.0873 12.6996 17.926 14.9437 15.7281 17.2402C15.1655 17.8281 15.1859 18.7608 15.7739 19.3235C16.3615 19.8859 17.2945 19.8658 17.8572 19.2776C19.8109 17.2363 21.8284 15.1134 24.2323 13.8385C25.6486 13.1159 27.4116 13.6652 28.1664 15.0679C28.9391 16.4986 28.4059 18.2843 26.9681 19.0569C25.4255 19.8878 24.038 21.34 22.1183 23.3495C16.795 28.9145 10.0705 32.1063 3.6689 32.1063H3.22687V19.7156ZM32.1062 72.7732H19.7155C18.2621 69.4086 15.6714 66.9298 13.1587 64.5257C8.3534 59.9258 3.22687 54.0446 3.22687 42.4203V35.2232C5.52161 35.7601 7.41762 37.5234 8.0761 39.8738C8.53331 41.5064 8.95059 44.3523 9.39424 47.3777C10.264 53.2953 13.0369 56.2497 17.2403 60.2718C17.8279 60.8343 18.7607 60.8141 19.3236 60.226C19.8861 59.6381 19.8657 58.7054 19.2776 58.1427C17.2902 56.2409 15.2422 54.287 13.9545 51.9812C13.0423 50.2829 13.6783 48.5814 15.0679 47.8338C16.5015 47.0596 18.2857 47.5968 19.057 49.0321C19.8879 50.5748 21.3401 51.9622 23.3495 53.8818C28.9145 59.2049 32.1062 65.9295 32.1062 72.3311V72.7732ZM51.7516 50.6143C50.0837 52.3602 48.7663 53.7391 47.6358 54.348C44.7629 55.8915 43.6932 59.4673 45.2396 62.3306C45.5309 62.8721 45.904 63.3598 46.3385 63.7799C43.455 64.2036 40.7757 64.6109 39.0788 65.0864C37.3171 65.58 35.7842 66.5564 34.6073 67.8447C33.4824 62.0982 30.2599 56.4137 25.3855 51.7515C23.6397 50.0837 22.2607 48.7661 21.6519 47.6357C20.1083 44.7634 16.5325 43.6927 13.6693 45.2396C13.1282 45.5308 12.6401 45.9033 12.22 46.3384C11.7962 43.4548 11.3888 40.7757 10.9136 39.0787C10.42 37.3168 9.4436 35.7841 8.15523 34.6071C13.9015 33.4823 19.586 30.2598 24.2484 25.3856C25.9163 23.6398 27.2337 22.2608 28.3642 21.6519C31.2372 20.1082 32.3068 16.5325 30.7603 13.6692C30.4638 13.1184 30.0894 12.6333 29.6577 12.2205C32.5425 11.7966 35.2234 11.389 36.921 10.9135C38.6828 10.4199 40.2156 9.44349 41.3926 8.15526C42.5174 13.9017 45.74 19.5862 50.6144 24.2484C52.3601 25.9162 53.7391 27.2338 54.3479 28.3642C55.8917 31.237 59.4674 32.3073 62.3307 30.7603C62.8815 30.4638 63.3665 30.0894 63.7794 29.6579C64.2033 32.5429 64.611 35.2235 65.0863 36.9212C65.5799 38.6831 66.5564 40.2158 67.8448 41.3928C62.0984 42.5176 56.414 45.7401 51.7516 50.6143ZM72.7731 40.7769C70.4784 40.24 68.5824 38.4767 67.9239 36.1263C67.4667 34.4937 67.0494 31.6477 66.6058 28.6223C65.7448 22.7639 63.0054 19.7908 58.7597 15.7283C58.1716 15.1656 57.2391 15.1864 56.6764 15.7741C56.1138 16.362 56.1343 17.2948 56.7224 17.8574C58.7746 19.8213 60.8162 21.7601 62.1642 24.2375C62.883 25.6531 62.3332 27.4126 60.9323 28.1665C59.4989 28.9407 57.7144 28.4034 56.9431 26.9681C56.1122 25.4254 54.66 24.038 52.6507 22.1184C47.0855 16.7952 43.8937 10.0706 43.8937 3.66894V3.2269H56.2845C57.7379 6.5915 60.3286 9.07026 62.8413 11.4743C67.6466 16.0742 72.7731 21.9555 72.7731 33.5797V40.7769Z" fill="white"></path></svg>