<svg xmlns="http://www.w3.org/2000/svg" width="12" height="20" viewBox="0 0 12 20" fill="none"><path d="M10.75 0C11.3023 0 11.75 0.447715 11.75 1V3C11.75 3.55228 11.3023 4 10.75 4H8.75C8.06 4 7.75 4.81 7.75 5.5V8H9.75C10.3023 8 10.75 8.44771 10.75 9V11C10.75 11.5523 10.3023 12 9.75 12H7.75V19C7.75 19.5523 7.30228 20 6.75 20H4.75C4.19772 20 3.75 19.5523 3.75 19V12H1.75C1.19772 12 0.75 11.5523 0.75 11V9C0.75 8.44771 1.19772 8 1.75 8H3.75V4C3.75 1.79086 5.54086 0 7.75 0H10.75Z" fill="white"></path><mask id="mask0" maskUnits="userSpaceOnUse" x="0" y="0" width="12" height="20"><path d="M10.75 0C11.3023 0 11.75 0.447715 11.75 1V3C11.75 3.55228 11.3023 4 10.75 4H8.75C8.06 4 7.75 4.81 7.75 5.5V8H9.75C10.3023 8 10.75 8.44771 10.75 9V11C10.75 11.5523 10.3023 12 9.75 12H7.75V19C7.75 19.5523 7.30228 20 6.75 20H4.75C4.19772 20 3.75 19.5523 3.75 19V12H1.75C1.19772 12 0.75 11.5523 0.75 11V9C0.75 8.44771 1.19772 8 1.75 8H3.75V4C3.75 1.79086 5.54086 0 7.75 0H10.75Z" fill="white"></path></mask><g mask="url(#mask0)">
</g></svg>