<svg xmlns="http://www.w3.org/2000/svg" width="21" height="20" viewBox="0 0 21 20" fill="none"><path fill-rule="evenodd" clip-rule="evenodd" d="M3.15125 4.82482C1.82565 4.82482 0.75 3.72685 0.75 2.40125C0.75 1.07565 1.82565 0 3.15125 0C4.47685 0 5.5525 1.07565 5.5525 2.40125C5.5525 3.72685 4.47685 4.82482 3.15125 4.82482ZM5.22668 19.9955H1.08028V6.64584H5.22668V19.9955ZM16.6081 19.9955H20.7455H20.75V12.6624C20.75 9.07387 19.9779 6.31109 15.7824 6.31109C13.765 6.31109 12.4126 7.41799 11.8591 8.46686H11.8011V6.64584H7.82431V19.9955H11.9662V13.3854C11.9662 11.6447 12.2965 9.96206 14.4523 9.96206C16.5768 9.96206 16.6081 11.9482 16.6081 13.497V19.9955Z" fill="white"></path><mask id="mask0" maskUnits="userSpaceOnUse" x="0" y="0" width="21" height="20"><path fill-rule="evenodd" clip-rule="evenodd" d="M3.15125 4.82482C1.82565 4.82482 0.75 3.72685 0.75 2.40125C0.75 1.07565 1.82565 0 3.15125 0C4.47685 0 5.5525 1.07565 5.5525 2.40125C5.5525 3.72685 4.47685 4.82482 3.15125 4.82482ZM5.22668 19.9955H1.08028V6.64584H5.22668V19.9955ZM16.6081 19.9955H20.7455H20.75V12.6624C20.75 9.07387 19.9779 6.31109 15.7824 6.31109C13.765 6.31109 12.4126 7.41799 11.8591 8.46686H11.8011V6.64584H7.82431V19.9955H11.9662V13.3854C11.9662 11.6447 12.2965 9.96206 14.4523 9.96206C16.5768 9.96206 16.6081 11.9482 16.6081 13.497V19.9955Z" fill="white"></path></mask><g mask="url(#mask0)">
</g></svg>