<svg xmlns="http://www.w3.org/2000/svg" width="79" height="79" viewBox="0 0 79 79" fill="none"><path d="M54.9606 41.0429C55.8092 41.0429 56.5035 40.3486 56.5035 39.5C56.5035 38.6513 55.8092 37.957 54.9606 37.957H49.5139V35.0562H52.6461C53.4947 35.0562 54.1891 34.3619 54.1891 33.5133C54.1891 32.6646 53.4947 31.9703 52.6461 31.9703H49.5139V31.0136C49.5139 30.165 48.8195 29.4707 47.9709 29.4707H47.0143V26.3384C47.0143 25.4898 46.3199 24.7955 45.4713 24.7955C44.6227 24.7955 43.9283 25.4898 43.9283 26.3384V29.4707H41.043V24.0394C41.043 23.1908 40.3486 22.4965 39.5 22.4965C38.6514 22.4965 37.957 23.1908 37.957 24.0394V29.4707H35.0563V26.3384C35.0563 25.4898 34.3619 24.7955 33.5133 24.7955C32.6647 24.7955 31.9703 25.4898 31.9703 26.3384V29.4707H31.0137C30.165 29.4707 29.4707 30.165 29.4707 31.0136V31.9703H26.3385C25.4899 31.9703 24.7955 32.6646 24.7955 33.5133C24.7955 34.3619 25.4899 35.0562 26.3385 35.0562H29.4707V37.957H24.0395C23.1908 37.957 22.4965 38.6513 22.4965 39.5C22.4965 40.3486 23.1908 41.0429 24.0395 41.0429H29.4707V43.9437H26.3385C25.4899 43.9437 24.7955 44.6381 24.7955 45.4867C24.7955 46.3353 25.4899 47.0297 26.3385 47.0297H29.4707V47.9863C29.4707 48.8349 30.165 49.5293 31.0137 49.5293H31.9703V52.6615C31.9703 53.5101 32.6647 54.2045 33.5133 54.2045C34.3619 54.2045 35.0563 53.5101 35.0563 52.6615V49.5293H37.957V54.9759C37.957 55.8246 38.6514 56.5189 39.5 56.5189C40.3486 56.5189 41.043 55.8246 41.043 54.9759V49.5293H43.9438V52.6615C43.9438 53.5101 44.6381 54.2045 45.4867 54.2045C46.3354 54.2045 47.0297 53.5101 47.0297 52.6615V49.5293H47.9863C48.835 49.5293 49.5293 48.8349 49.5293 47.9863V47.0297H52.6615C53.5102 47.0297 54.2045 46.3353 54.2045 45.4867C54.2045 44.6381 53.5102 43.9437 52.6615 43.9437H49.5293V41.0429H54.9606ZM32.5567 46.4279V32.5566H46.4279V46.4279H32.5567Z" fill="white"></path><path d="M73.7529 34.2529C71.4076 34.2529 69.4017 35.8113 68.7537 37.956H62.6744C62.6744 37.8943 62.659 37.8326 62.659 37.7555C62.5972 36.9068 61.8566 36.2742 61.008 36.3359C60.1593 36.3976 59.5267 37.1383 59.5885 37.9869C60.2365 46.6738 55.2681 54.759 47.2138 58.0918C36.9531 62.335 25.1494 57.4592 20.9062 47.1984C16.6631 36.9377 21.5389 25.134 31.7996 20.8908C39.8539 17.558 49.0963 19.749 54.7744 26.3529C55.3299 27.001 56.3019 27.0781 56.95 26.5226C57.598 25.9672 57.6752 24.9951 57.1197 24.3471C57.0734 24.3008 57.0271 24.2545 56.9808 24.1928L61.2703 19.9033C62.0109 20.3045 62.8595 20.5051 63.7236 20.5051C65.1277 20.5051 66.4392 19.965 67.4267 18.9775C68.4142 17.99 68.9543 16.6785 68.9543 15.2744C68.9543 13.8703 68.4142 12.5588 67.4267 11.5713C66.4392 10.5838 65.1277 10.0437 63.7236 10.0437C62.3195 10.0437 61.008 10.5838 60.0205 11.5713C59.033 12.5588 58.4929 13.8703 58.4929 15.2744C58.4929 16.1385 58.709 16.9717 59.0947 17.7277L54.8052 22.0172C50.917 18.6072 46.072 16.6476 41.0574 16.3236V10.2443C43.2021 9.58085 44.7605 7.59042 44.7605 5.22968C44.7605 2.34432 42.4152 -0.0164185 39.5144 -0.0164185C36.6291 -0.0164185 34.2683 2.32889 34.2683 5.22968C34.2683 7.59042 35.8267 9.58085 37.9715 10.2443V16.3236C35.5027 16.4933 33.0185 17.0642 30.6269 18.0517C28.2199 19.0547 26.0752 20.3971 24.2236 22.0326L19.9033 17.7277C20.3045 16.9871 20.5051 16.1385 20.5051 15.2744C20.5051 13.8703 19.965 12.5588 18.9775 11.5713C17.99 10.5838 16.6785 10.0437 15.2744 10.0437C13.8703 10.0437 12.5588 10.5838 11.5713 11.5713C10.5838 12.5588 10.0283 13.8703 10.0283 15.2744C10.0283 16.6785 10.5683 17.99 11.5558 18.9775C12.5433 19.965 13.8549 20.5051 15.259 20.5051C16.123 20.5051 16.9562 20.2891 17.7123 19.9033L22.0172 24.2082C18.6689 28.0348 16.6631 32.8797 16.3236 37.956H10.2443C9.58084 35.8113 7.59042 34.2529 5.22967 34.2529C2.34432 34.2529 -0.0164185 36.5982 -0.0164185 39.499C-0.0164185 42.3844 2.32889 44.7451 5.22967 44.7451C7.59042 44.7451 9.58084 43.1867 10.2443 41.042H16.3236C16.4933 43.5107 17.0488 45.9795 18.0363 48.3865C19.0392 50.7935 20.3971 52.9383 22.0172 54.7898L17.7277 59.0947C16.9871 58.6936 16.1385 58.493 15.2744 58.493C13.8703 58.493 12.5588 59.033 11.5713 60.0205C10.5838 61.008 10.0437 62.3195 10.0437 63.7236C10.0437 65.1277 10.5838 66.4393 11.5713 67.4268C12.5588 68.4143 13.8703 68.9543 15.2744 68.9543C16.6785 68.9543 17.99 68.4143 18.9775 67.4268C19.965 66.4393 20.5051 65.1277 20.5051 63.7236C20.5051 62.8596 20.289 62.0109 19.9033 61.2703L24.2082 56.9654C28.0347 60.3137 32.8797 62.3195 37.956 62.659V68.7383C35.8113 69.4018 34.2529 71.3922 34.2529 73.7375C34.2529 76.6228 36.5982 78.9836 39.499 78.9836C42.3843 78.9836 44.7451 76.6383 44.7451 73.7375C44.7451 71.3922 43.1867 69.3863 41.042 68.7228V62.6436C43.5107 62.4738 45.9795 61.9184 48.3865 60.9309C50.7781 59.9434 52.9228 58.5855 54.8052 56.9654L59.0947 61.2549C58.6935 61.9955 58.4929 62.8441 58.4929 63.7082C58.4929 65.1123 59.033 66.4238 60.0205 67.4113C61.008 68.3988 62.3195 68.9389 63.7236 68.9389C65.1277 68.9389 66.4392 68.3988 67.4267 67.4113C68.4142 66.4238 68.9543 65.1123 68.9543 63.7082C68.9543 62.3041 68.4142 60.9926 67.4267 60.0051C66.4392 59.0176 65.1277 58.4775 63.7236 58.4775C62.8595 58.4775 62.0109 58.6935 61.2703 59.0793L56.9808 54.7898C60.2982 51.0096 62.3349 46.1955 62.6744 41.0266H68.7537C69.4172 43.1713 71.4076 44.7297 73.7683 44.7297C76.6537 44.7297 79.0144 42.3844 79.0144 39.4836C78.999 36.6137 76.6537 34.2529 73.7529 34.2529ZM62.1961 13.7469C62.5972 13.3457 63.1373 13.1142 63.7236 13.1142C64.3099 13.1142 64.8345 13.3457 65.2511 13.7469C65.6523 14.148 65.8838 14.6881 65.8838 15.2744C65.8838 15.8607 65.6523 16.3853 65.2511 16.8019C64.85 17.2031 64.3099 17.4346 63.7236 17.4346C63.1373 17.4346 62.6127 17.2031 62.1961 16.8019C61.7795 16.4008 61.5634 15.8607 61.5634 15.2744C61.5634 14.6881 61.7949 14.1635 62.1961 13.7469ZM37.3388 5.24511C37.3388 4.05702 38.3109 3.08495 39.499 3.08495C40.6871 3.08495 41.6592 4.05702 41.6592 5.24511C41.6592 6.43319 40.6871 7.40526 39.499 7.40526C38.3109 7.38983 37.3388 6.43319 37.3388 5.24511ZM16.8019 16.8019C16.4008 17.2031 15.8607 17.4346 15.2744 17.4346C14.6881 17.4346 14.1635 17.2031 13.7469 16.8019C13.3457 16.4008 13.1142 15.8607 13.1142 15.2744C13.1142 14.6881 13.3457 14.1635 13.7469 13.7469C14.148 13.3457 14.6881 13.1142 15.2744 13.1142C15.8607 13.1142 16.3853 13.3457 16.8019 13.7469C17.2031 14.148 17.4346 14.6881 17.4346 15.2744C17.4346 15.8607 17.2031 16.3853 16.8019 16.8019ZM5.2451 41.6592C4.05702 41.6592 3.08495 40.6871 3.08495 39.499C3.08495 38.3109 4.05702 37.3389 5.2451 37.3389C6.43319 37.3389 7.40526 38.3109 7.40526 39.499C7.38983 40.6871 6.43319 41.6592 5.2451 41.6592ZM16.8019 65.2512C16.4008 65.6523 15.8607 65.8838 15.2744 65.8838C14.6881 65.8838 14.1635 65.6523 13.7469 65.2512C13.3457 64.85 13.1142 64.31 13.1142 63.7236C13.1142 63.1373 13.3457 62.6127 13.7469 62.1961C14.148 61.7949 14.6881 61.5635 15.2744 61.5635C15.8607 61.5635 16.3853 61.7949 16.8019 62.1961C17.2185 62.5973 17.4346 63.1373 17.4346 63.7236C17.4346 64.31 17.2031 64.8346 16.8019 65.2512ZM41.6592 73.7529C41.6592 74.941 40.6871 75.9131 39.499 75.9131C38.3109 75.9131 37.3388 74.941 37.3388 73.7529C37.3388 72.5648 38.3109 71.5928 39.499 71.5928C40.6871 71.6082 41.6592 72.5648 41.6592 73.7529ZM62.1961 62.1961C62.5972 61.7949 63.1373 61.5635 63.7236 61.5635C64.3099 61.5635 64.8345 61.7949 65.2511 62.1961C65.6523 62.5973 65.8838 63.1373 65.8838 63.7236C65.8838 64.31 65.6523 64.8346 65.2511 65.2512C64.85 65.6523 64.3099 65.8838 63.7236 65.8838C63.1373 65.8838 62.6127 65.6523 62.1961 65.2512C61.7949 64.85 61.5634 64.31 61.5634 63.7236C61.5634 63.1373 61.7949 62.5973 62.1961 62.1961ZM73.7529 41.6592C72.5648 41.6592 71.5927 40.6871 71.5927 39.499C71.5927 38.3109 72.5648 37.3389 73.7529 37.3389C74.941 37.3389 75.9131 38.3109 75.9131 39.499C75.9131 40.6871 74.941 41.6592 73.7529 41.6592Z" fill="white"></path><path d="M58.8334 29.8256C58.0773 30.2114 57.7687 31.1371 58.1391 31.8932V31.9086C58.4014 32.4487 58.9568 32.7573 59.5123 32.7573C59.7438 32.7573 59.9752 32.711 60.2067 32.5875C60.9627 32.2018 61.2713 31.276 60.901 30.5199C60.5307 29.7485 59.5895 29.4399 58.8334 29.8256Z" fill="white"></path></svg>